<?xml version="1.0" encoding="UTF-8"?>
<svg version="1.1" xmlns="http://www.w3.org/2000/svg" width="1024" height="1024">
<path d="M0 0 C1.37418091 0.01522705 1.37418091 0.01522705 2.77612305 0.03076172 C15.09719016 0.31204969 23.66675695 2.59913026 32.5625 11.26171875 C36.70410179 15.65354232 38.92808603 19.63311669 40.625 25.375 C43.84434551 35.71510126 46.86017315 44.118211 56.8125 49.57421875 C64.80533963 53.22479454 72.97946492 53.65219704 81.4375 51.25 C89.2467375 48.19665849 93.30842471 42.60904247 97.87890625 35.83984375 C103.10070767 28.46857597 109.60645169 23.14561407 118.625 21.375 C132.22918857 20.19286965 147.07489505 23.47257152 157.875 32.19140625 C163.72051189 37.68231908 168.1964208 44.21260643 168.7668457 52.41455078 C168.77804443 53.12595215 168.78924316 53.83735352 168.80078125 54.5703125 C169.10041847 67.44544975 169.10041847 67.44544975 173.625 79.375 C174.16125 80.4475 174.6975 81.52 175.25 82.625 C180.69870976 88.93403235 188.41753946 92.43301735 196.48828125 94.1484375 C206.75681806 94.89012509 214.29341717 89.53369943 222.00390625 83.4375 C229.47707673 77.55697241 237.39198362 77.38574824 246.625 78.375 C258.58477416 82.60993642 273.16461489 92.93733157 279.75 103.9375 C284.24348508 114.23573626 282.0321436 125.36849274 278.53125 135.55859375 C275.94897507 143.58368092 278.39348943 150.83835199 281.625 158.375 C285.13655263 164.73968914 291.9375981 168.14586603 298.625 170.375 C305.01200913 170.98471449 310.4823827 170.66088684 316.5 168.375 C324.83231083 165.32127352 333.54571799 164.97046139 342 167.875 C353.93035876 173.49959002 362.49865087 187.62711657 367.625 199.375 C370.0167353 207.34206422 369.02670445 215.87217523 365.625 223.375 C363.77821795 226.36011511 361.86303677 229.27585925 359.90698242 232.18896484 C355.56443676 238.76520463 352.53343747 245.39993079 354.05859375 253.37890625 C356.39020479 261.59582517 360.36775589 268.80304181 367.5625 273.69140625 C373.5003793 276.5649157 379.65394246 276.81871096 386.125 277.3125 C396.50712234 278.12584599 403.44550296 279.83532653 410.9375 287.4375 C415.16620149 292.56991592 417.4635837 298.13730049 419.625 304.375 C420.08712891 305.61056641 420.08712891 305.61056641 420.55859375 306.87109375 C423.69366779 316.00630948 425.22843469 326.74423155 421.89453125 336 C418.04692347 343.19798624 411.88802738 348.41926615 405.34375 353.09375 C399.53910598 357.42084827 397.32797934 363.6150676 396.30078125 370.5703125 C395.89411079 378.39521314 398.55162577 386.15808534 403.375 392.3125 C408.3051878 397.4628947 414.56090732 399.35201932 421.125 401.75 C431.27476843 405.63389983 436.90157119 410.47050915 441.625 420.375 C443.43218772 425.92995837 442.88851579 432.01572231 442.92016602 437.79931641 C442.93163817 439.25579582 442.95201413 440.71223478 442.98168945 442.16845703 C443.18804723 452.31111447 442.70491254 461.30269822 436.3125 469.6875 C430.82899954 475.17100046 425.93919876 477.73651106 418.6875 480.3125 C409.65427341 483.57841425 403.92046238 486.44204961 399.1875 495.1875 C395.08778191 504.31920085 394.86605107 510.21332962 398.41015625 519.65234375 C401.14656224 525.78506071 404.67360742 528.45616652 410.0625 532.1875 C416.9216525 537.04067394 421.81266387 542.88838662 423.37109375 551.3203125 C423.45488281 551.99835937 423.53867187 552.67640625 423.625 553.375 C423.76615234 554.39207031 423.76615234 554.39207031 423.91015625 555.4296875 C424.68692969 566.94186817 420.37269804 583.01983639 413.625 592.375 C407.43964821 599.39654249 400.45691935 603.85985772 391.04296875 604.69140625 C389.77066406 604.75199219 388.49835937 604.81257812 387.1875 604.875 C378.08696561 605.31534844 370.79862695 606.68922024 364.1875 613.3125 C359.08982914 619.67934406 356.09684644 627.84080429 356.5625 636.0625 C358.02268693 644.04972252 362.79662733 650.94089346 367.390625 657.46484375 C371.25965492 663.45204511 370.33349209 672.48541104 369.625 679.375 C368.58824926 683.23636755 366.88463233 686.09701319 364.625 689.375 C364.27083008 689.91753418 363.91666016 690.46006836 363.55175781 691.01904297 C350.67433211 710.73323061 350.67433211 710.73323061 339.9609375 713.97265625 C331.62647224 715.40819124 323.93869708 714.71125297 315.875 712.3125 C306.81411665 709.6767772 300.08636157 710.0543424 291.59375 714.2109375 C285.02319434 718.0959089 281.07858808 724.39167848 278.75 731.5 C276.79392084 739.32431663 278.46365054 746.45366539 281.25 753.875 C283.74854037 760.89895787 283.93892742 769.5139621 280.83203125 776.39453125 C276.3088246 783.81610332 269.89906942 789.19958362 263 794.3125 C262.37899414 794.77309814 261.75798828 795.23369629 261.11816406 795.70825195 C252.24699585 802.05167729 243.43912054 804.40303318 232.58203125 803.13671875 C227.64065846 802.16027982 224.07876938 799.91496384 219.99609375 797.03515625 C217.4872184 795.27853018 214.92769441 793.6561941 212.3125 792.0625 C211.51199219 791.57136719 210.71148438 791.08023438 209.88671875 790.57421875 C204.22134068 787.57029635 198.02786303 787.57262036 191.875 789.0234375 C184.23318992 791.50702578 178.33190597 794.9737464 174.05859375 801.921875 C170.48031962 809.13959035 169.76635379 815.60430951 169.53125 823.5390625 C169.0490331 833.83439331 166.35931749 841.76235108 158.62109375 848.8515625 C146.62525364 858.00690035 131.36058955 861.01713177 116.625 859.375 C106.90122063 856.64882413 100.50977254 849.32209366 95.0625 841.1875 C90.73888211 834.7905108 86.12908515 831.51241513 78.625 829.375 C69.47215219 828.24575254 61.55185973 829.58633987 53.625 834.375 C46.64566303 840.17011734 43.55381 847.82177437 41.25 856.375 C38.51565925 865.75611587 32.84444922 872.21461536 24.625 877.375 C17.12829314 881.30702955 7.3851253 880.57619571 -0.875 880.625 C-2.18404297 880.6559375 -2.18404297 880.6559375 -3.51953125 880.6875 C-14.83910585 880.75457896 -22.82501797 877.42463618 -31.0625 869.81640625 C-35.646293 865.03780205 -37.39746792 859.59129282 -39.375 853.375 C-42.5765639 843.53509135 -45.04028937 837.9038333 -54.4375 833.0625 C-63.01773041 828.94009422 -70.06982912 827.99387731 -79.1875 831.1875 C-82.73027022 832.52179008 -85.37090266 834.10074844 -88.375 836.375 C-89.035 836.375 -89.695 836.375 -90.375 836.375 C-90.64957031 836.95636719 -90.92414063 837.53773438 -91.20703125 838.13671875 C-95.71206209 846.77010562 -102.74880719 855.04155054 -111.92578125 858.65625 C-125.30623333 862.58288985 -139.24912051 858.49362143 -151.375 852.375 C-158.37953383 847.72014461 -164.34567894 841.69716761 -166.375 833.375 C-166.80289606 828.78157272 -166.94614848 824.18190232 -166.92407227 819.56958008 C-166.97966212 810.72766092 -169.3036311 802.48744107 -175.4921875 795.91015625 C-182.29086125 790.36683927 -190.69456932 787.99538933 -199.375 788.375 C-207.2979262 789.34363361 -212.35297218 793.45537678 -218.5 798.27734375 C-226.28781745 803.95948773 -234.37323186 804.15166672 -243.69921875 803.1171875 C-254.59042251 800.78732048 -267.42924298 791.09698174 -274.1484375 782.34765625 C-279.12542929 774.34325863 -280.61754068 766.74961589 -279.375 757.375 C-278.61139856 754.48338552 -277.68512764 751.65258739 -276.75 748.8125 C-273.98325485 740.28644653 -273.9660309 734.0200176 -277.546875 725.62890625 C-281.47855521 718.1962636 -286.86743887 714.44096552 -294.375 711 C-301.49024724 709.51765683 -306.78349469 710.38427454 -313.6875 712.375 C-323.09096886 715.08002689 -332.508537 716.23846072 -341.375 711.375 C-352.64324925 705.02798614 -360.72263376 691.67973247 -366.375 680.375 C-367.15109591 670.26357899 -367.21772739 662.04382923 -361.375 653.375 C-356.17982391 645.31657345 -353.05088237 638.18740853 -354.375 628.375 C-356.64253266 620.1064158 -360.05464564 613.99702268 -367.375 609.375 C-372.96099923 606.20798131 -377.98506116 605.19380389 -384.375 604.875 C-394.27786553 604.37073707 -401.22386036 601.52172387 -408.41015625 594.61328125 C-417.64396841 584.09444553 -421.27481675 567.21385438 -420.7265625 553.55078125 C-420.2615446 549.35011951 -419.58858882 546.9905284 -417.375 543.375 C-417.00761719 542.75753906 -416.64023437 542.14007812 -416.26171875 541.50390625 C-413.24821843 536.94365356 -409.76893576 534.08547367 -405.3125 530.9375 C-398.82403245 526.28447984 -394.9346039 521.27799282 -393.375 513.375 C-392.45934322 503.97825989 -394.43383476 496.95975758 -399.5 489.0625 C-404.11109663 484.75212707 -409.46224736 482.46104611 -415.33984375 480.26953125 C-424.42049156 476.84529726 -432.32633778 471.92122025 -436.9375 463.0625 C-439.78992785 455.74540247 -439.59411816 449.06310448 -439.625 441.25 C-439.6559375 439.32800781 -439.6559375 439.32800781 -439.6875 437.3671875 C-439.73750403 425.16620325 -438.26139954 417.35784568 -429.625 408.5 C-425.19631247 404.31735067 -421.32423375 402.30417925 -415.5625 400.5 C-407.18590978 397.81865971 -400.6351689 394.25946269 -396.3046875 386.375 C-392.50617083 378.20340112 -392.25482226 370.9557033 -395.25 362.5625 C-397.71948189 355.54367162 -397.71948189 355.54367162 -403.375 351.375 C-410.74956935 346.95025839 -416.81345756 341.81160123 -419.375 333.375 C-421.91665141 318.69843667 -418.11793895 302.51919985 -410.2578125 290.00390625 C-408.12050218 287.44445812 -406.00556208 285.41610502 -403.375 283.375 C-402.70726562 282.83875 -402.03953125 282.3025 -401.3515625 281.75 C-395.47332191 278.01508901 -389.2594882 277.89677327 -382.5 277.4375 C-372.76614806 276.77008684 -364.45885456 275.81687249 -357.43359375 268.296875 C-352.61683676 261.65787501 -349.3785484 253.63131322 -350.375 245.375 C-351.98234174 238.63488032 -354.73172847 233.63109267 -359 228.1875 C-362.60470003 223.57656187 -364.97525009 220.2416001 -365.375 214.375 C-365.45363281 213.43785156 -365.53226562 212.50070312 -365.61328125 211.53515625 C-366.23154632 197.52703622 -357.9131246 186.6336837 -349.51953125 176.03125 C-344.40604714 170.49265439 -338.41932496 166.89187561 -330.890625 165.9296875 C-322.85715925 165.67968338 -316.08158313 167.07416673 -308.453125 169.46875 C-300.59520182 171.78225023 -293.554399 170.17900992 -286.375 166.375 C-279.81327794 161.01182127 -275.91605367 153.38927799 -274.375 145.125 C-273.96741423 140.00359625 -275.75874619 135.71177964 -277.37109375 130.9140625 C-280.30255786 120.57979604 -280.48114679 110.84611185 -275.29296875 101.40625 C-268.94237895 91.73646976 -255.29218911 82.01406304 -244.375 78.375 C-232.19425587 77.40717697 -224.20669464 78.77111906 -214.375 86.4375 C-207.74437322 91.57988991 -200.67639324 94.19442303 -192.23828125 93.8125 C-183.35919718 92.45580503 -176.86649049 88.76311385 -170.99609375 82.046875 C-166.9157981 75.3217612 -165.96341292 68.61744594 -165.875 60.875 C-165.74648457 49.62071984 -162.95108433 41.28968786 -155.3125 32.8125 C-150.96261585 28.60203521 -145.97325421 26.50655286 -140.375 24.375 C-139.60542969 24.05402344 -138.83585937 23.73304687 -138.04296875 23.40234375 C-129.4814983 20.26654111 -117.70598919 19.68731077 -108.9375 22.3125 C-100.33752805 26.44895183 -94.49277873 34.32155465 -89.1640625 41.921875 C-84.48542504 48.33712462 -79.06442013 50.81308654 -71.375 52.375 C-62.97795846 53.32305308 -54.06831798 50.89328899 -47.375 45.625 C-42.38773122 40.73410357 -40.54454296 35.06629099 -38.62646484 28.50708008 C-35.38364145 17.47061214 -30.78439769 9.24887441 -20.375 3.375 C-13.58910872 0.70051539 -7.25186362 -0.11680314 0 0 Z " fill="#0B2D4F" transform="translate(510.375,55.625)"/>
<path d="M0 0 C1.37418091 0.01522705 1.37418091 0.01522705 2.77612305 0.03076172 C15.09719016 0.31204969 23.66675695 2.59913026 32.5625 11.26171875 C36.70410179 15.65354232 38.92808603 19.63311669 40.625 25.375 C43.84434551 35.71510126 46.86017315 44.118211 56.8125 49.57421875 C64.80533963 53.22479454 72.97946492 53.65219704 81.4375 51.25 C89.2467375 48.19665849 93.30842471 42.60904247 97.87890625 35.83984375 C103.10070767 28.46857597 109.60645169 23.14561407 118.625 21.375 C132.22918857 20.19286965 147.07489505 23.47257152 157.875 32.19140625 C163.72051189 37.68231908 168.1964208 44.21260643 168.7668457 52.41455078 C168.77804443 53.12595215 168.78924316 53.83735352 168.80078125 54.5703125 C169.10041847 67.44544975 169.10041847 67.44544975 173.625 79.375 C174.16125 80.4475 174.6975 81.52 175.25 82.625 C180.69870976 88.93403235 188.41753946 92.43301735 196.48828125 94.1484375 C206.75681806 94.89012509 214.29341717 89.53369943 222.00390625 83.4375 C229.47707673 77.55697241 237.39198362 77.38574824 246.625 78.375 C258.58477416 82.60993642 273.16461489 92.93733157 279.75 103.9375 C284.24348508 114.23573626 282.0321436 125.36849274 278.53125 135.55859375 C275.94897507 143.58368092 278.39348943 150.83835199 281.625 158.375 C285.13655263 164.73968914 291.9375981 168.14586603 298.625 170.375 C305.01200913 170.98471449 310.4823827 170.66088684 316.5 168.375 C324.83231083 165.32127352 333.54571799 164.97046139 342 167.875 C353.93035876 173.49959002 362.49865087 187.62711657 367.625 199.375 C370.0167353 207.34206422 369.02670445 215.87217523 365.625 223.375 C363.77821795 226.36011511 361.86303677 229.27585925 359.90698242 232.18896484 C355.56443676 238.76520463 352.53343747 245.39993079 354.05859375 253.37890625 C356.39020479 261.59582517 360.36775589 268.80304181 367.5625 273.69140625 C373.5003793 276.5649157 379.65394246 276.81871096 386.125 277.3125 C396.50712234 278.12584599 403.44550296 279.83532653 410.9375 287.4375 C415.16620149 292.56991592 417.4635837 298.13730049 419.625 304.375 C420.08712891 305.61056641 420.08712891 305.61056641 420.55859375 306.87109375 C423.69366779 316.00630948 425.22843469 326.74423155 421.89453125 336 C418.04692347 343.19798624 411.88802738 348.41926615 405.34375 353.09375 C399.53910598 357.42084827 397.32797934 363.6150676 396.30078125 370.5703125 C395.89411079 378.39521314 398.55162577 386.15808534 403.375 392.3125 C408.3051878 397.4628947 414.56090732 399.35201932 421.125 401.75 C431.27476843 405.63389983 436.90157119 410.47050915 441.625 420.375 C443.43218772 425.92995837 442.88851579 432.01572231 442.92016602 437.79931641 C442.93163817 439.25579582 442.95201413 440.71223478 442.98168945 442.16845703 C443.18804723 452.31111447 442.70491254 461.30269822 436.3125 469.6875 C430.82899954 475.17100046 425.93919876 477.73651106 418.6875 480.3125 C409.65427341 483.57841425 403.92046238 486.44204961 399.1875 495.1875 C395.08778191 504.31920085 394.86605107 510.21332962 398.41015625 519.65234375 C401.14656224 525.78506071 404.67360742 528.45616652 410.0625 532.1875 C416.9216525 537.04067394 421.81266387 542.88838662 423.37109375 551.3203125 C423.45488281 551.99835937 423.53867187 552.67640625 423.625 553.375 C423.76615234 554.39207031 423.76615234 554.39207031 423.91015625 555.4296875 C424.68692969 566.94186817 420.37269804 583.01983639 413.625 592.375 C407.43964821 599.39654249 400.45691935 603.85985772 391.04296875 604.69140625 C389.77066406 604.75199219 388.49835937 604.81257812 387.1875 604.875 C378.08696561 605.31534844 370.79862695 606.68922024 364.1875 613.3125 C359.08982914 619.67934406 356.09684644 627.84080429 356.5625 636.0625 C358.02268693 644.04972252 362.79662733 650.94089346 367.390625 657.46484375 C371.25965492 663.45204511 370.33349209 672.48541104 369.625 679.375 C368.58824926 683.23636755 366.88463233 686.09701319 364.625 689.375 C364.27083008 689.91753418 363.91666016 690.46006836 363.55175781 691.01904297 C350.67433211 710.73323061 350.67433211 710.73323061 339.9609375 713.97265625 C331.62647224 715.40819124 323.93869708 714.71125297 315.875 712.3125 C306.81411665 709.6767772 300.08636157 710.0543424 291.59375 714.2109375 C285.02319434 718.0959089 281.07858808 724.39167848 278.75 731.5 C276.79392084 739.32431663 278.46365054 746.45366539 281.25 753.875 C283.74854037 760.89895787 283.93892742 769.5139621 280.83203125 776.39453125 C276.3088246 783.81610332 269.89906942 789.19958362 263 794.3125 C262.37899414 794.77309814 261.75798828 795.23369629 261.11816406 795.70825195 C252.24699585 802.05167729 243.43912054 804.40303318 232.58203125 803.13671875 C227.64065846 802.16027982 224.07876938 799.91496384 219.99609375 797.03515625 C217.4872184 795.27853018 214.92769441 793.6561941 212.3125 792.0625 C211.51199219 791.57136719 210.71148438 791.08023438 209.88671875 790.57421875 C204.22134068 787.57029635 198.02786303 787.57262036 191.875 789.0234375 C184.23318992 791.50702578 178.33190597 794.9737464 174.05859375 801.921875 C170.48031962 809.13959035 169.76635379 815.60430951 169.53125 823.5390625 C169.0490331 833.83439331 166.35931749 841.76235108 158.62109375 848.8515625 C146.62525364 858.00690035 131.36058955 861.01713177 116.625 859.375 C106.90122063 856.64882413 100.50977254 849.32209366 95.0625 841.1875 C90.73888211 834.7905108 86.12908515 831.51241513 78.625 829.375 C69.47215219 828.24575254 61.55185973 829.58633987 53.625 834.375 C46.64566303 840.17011734 43.55381 847.82177437 41.25 856.375 C38.51565925 865.75611587 32.84444922 872.21461536 24.625 877.375 C17.12829314 881.30702955 7.3851253 880.57619571 -0.875 880.625 C-2.18404297 880.6559375 -2.18404297 880.6559375 -3.51953125 880.6875 C-14.83910585 880.75457896 -22.82501797 877.42463618 -31.0625 869.81640625 C-35.646293 865.03780205 -37.39746792 859.59129282 -39.375 853.375 C-42.5765639 843.53509135 -45.04028937 837.9038333 -54.4375 833.0625 C-63.01773041 828.94009422 -70.06982912 827.99387731 -79.1875 831.1875 C-82.73027022 832.52179008 -85.37090266 834.10074844 -88.375 836.375 C-89.035 836.375 -89.695 836.375 -90.375 836.375 C-90.64957031 836.95636719 -90.92414063 837.53773438 -91.20703125 838.13671875 C-95.71206209 846.77010562 -102.74880719 855.04155054 -111.92578125 858.65625 C-125.30623333 862.58288985 -139.24912051 858.49362143 -151.375 852.375 C-158.37953383 847.72014461 -164.34567894 841.69716761 -166.375 833.375 C-166.80289606 828.78157272 -166.94614848 824.18190232 -166.92407227 819.56958008 C-166.97966212 810.72766092 -169.3036311 802.48744107 -175.4921875 795.91015625 C-182.29086125 790.36683927 -190.69456932 787.99538933 -199.375 788.375 C-207.2979262 789.34363361 -212.35297218 793.45537678 -218.5 798.27734375 C-226.28781745 803.95948773 -234.37323186 804.15166672 -243.69921875 803.1171875 C-254.59042251 800.78732048 -267.42924298 791.09698174 -274.1484375 782.34765625 C-279.12542929 774.34325863 -280.61754068 766.74961589 -279.375 757.375 C-278.61139856 754.48338552 -277.68512764 751.65258739 -276.75 748.8125 C-273.98325485 740.28644653 -273.9660309 734.0200176 -277.546875 725.62890625 C-281.47855521 718.1962636 -286.86743887 714.44096552 -294.375 711 C-301.49024724 709.51765683 -306.78349469 710.38427454 -313.6875 712.375 C-323.09096886 715.08002689 -332.508537 716.23846072 -341.375 711.375 C-352.64324925 705.02798614 -360.72263376 691.67973247 -366.375 680.375 C-367.15109591 670.26357899 -367.21772739 662.04382923 -361.375 653.375 C-356.17982391 645.31657345 -353.05088237 638.18740853 -354.375 628.375 C-356.64253266 620.1064158 -360.05464564 613.99702268 -367.375 609.375 C-372.96099923 606.20798131 -377.98506116 605.19380389 -384.375 604.875 C-394.27786553 604.37073707 -401.22386036 601.52172387 -408.41015625 594.61328125 C-417.64396841 584.09444553 -421.27481675 567.21385438 -420.7265625 553.55078125 C-420.2615446 549.35011951 -419.58858882 546.9905284 -417.375 543.375 C-417.00761719 542.75753906 -416.64023437 542.14007812 -416.26171875 541.50390625 C-413.24821843 536.94365356 -409.76893576 534.08547367 -405.3125 530.9375 C-398.82403245 526.28447984 -394.9346039 521.27799282 -393.375 513.375 C-392.45934322 503.97825989 -394.43383476 496.95975758 -399.5 489.0625 C-404.11109663 484.75212707 -409.46224736 482.46104611 -415.33984375 480.26953125 C-424.42049156 476.84529726 -432.32633778 471.92122025 -436.9375 463.0625 C-439.78992785 455.74540247 -439.59411816 449.06310448 -439.625 441.25 C-439.6559375 439.32800781 -439.6559375 439.32800781 -439.6875 437.3671875 C-439.73750403 425.16620325 -438.26139954 417.35784568 -429.625 408.5 C-425.19631247 404.31735067 -421.32423375 402.30417925 -415.5625 400.5 C-407.18590978 397.81865971 -400.6351689 394.25946269 -396.3046875 386.375 C-392.50617083 378.20340112 -392.25482226 370.9557033 -395.25 362.5625 C-397.71948189 355.54367162 -397.71948189 355.54367162 -403.375 351.375 C-410.74956935 346.95025839 -416.81345756 341.81160123 -419.375 333.375 C-421.91665141 318.69843667 -418.11793895 302.51919985 -410.2578125 290.00390625 C-408.12050218 287.44445812 -406.00556208 285.41610502 -403.375 283.375 C-402.70726562 282.83875 -402.03953125 282.3025 -401.3515625 281.75 C-395.47332191 278.01508901 -389.2594882 277.89677327 -382.5 277.4375 C-372.76614806 276.77008684 -364.45885456 275.81687249 -357.43359375 268.296875 C-352.61683676 261.65787501 -349.3785484 253.63131322 -350.375 245.375 C-351.98234174 238.63488032 -354.73172847 233.63109267 -359 228.1875 C-362.60470003 223.57656187 -364.97525009 220.2416001 -365.375 214.375 C-365.45363281 213.43785156 -365.53226562 212.50070312 -365.61328125 211.53515625 C-366.23154632 197.52703622 -357.9131246 186.6336837 -349.51953125 176.03125 C-344.40604714 170.49265439 -338.41932496 166.89187561 -330.890625 165.9296875 C-322.85715925 165.67968338 -316.08158313 167.07416673 -308.453125 169.46875 C-300.59520182 171.78225023 -293.554399 170.17900992 -286.375 166.375 C-279.81327794 161.01182127 -275.91605367 153.38927799 -274.375 145.125 C-273.96741423 140.00359625 -275.75874619 135.71177964 -277.37109375 130.9140625 C-280.30255786 120.57979604 -280.48114679 110.84611185 -275.29296875 101.40625 C-268.94237895 91.73646976 -255.29218911 82.01406304 -244.375 78.375 C-232.19425587 77.40717697 -224.20669464 78.77111906 -214.375 86.4375 C-207.74437322 91.57988991 -200.67639324 94.19442303 -192.23828125 93.8125 C-183.35919718 92.45580503 -176.86649049 88.76311385 -170.99609375 82.046875 C-166.9157981 75.3217612 -165.96341292 68.61744594 -165.875 60.875 C-165.74648457 49.62071984 -162.95108433 41.28968786 -155.3125 32.8125 C-150.96261585 28.60203521 -145.97325421 26.50655286 -140.375 24.375 C-139.60542969 24.05402344 -138.83585937 23.73304687 -138.04296875 23.40234375 C-129.4814983 20.26654111 -117.70598919 19.68731077 -108.9375 22.3125 C-100.33752805 26.44895183 -94.49277873 34.32155465 -89.1640625 41.921875 C-84.48542504 48.33712462 -79.06442013 50.81308654 -71.375 52.375 C-62.97795846 53.32305308 -54.06831798 50.89328899 -47.375 45.625 C-42.38773122 40.73410357 -40.54454296 35.06629099 -38.62646484 28.50708008 C-35.38364145 17.47061214 -30.78439769 9.24887441 -20.375 3.375 C-13.58910872 0.70051539 -7.25186362 -0.11680314 0 0 Z M-80.75 119.375 C-81.95897949 119.69114258 -83.16795898 120.00728516 -84.41357422 120.33300781 C-132.45563868 133.16016979 -178.11451505 155.27672719 -216 187.75 C-216.57451904 188.23968262 -217.14903809 188.72936523 -217.7409668 189.23388672 C-220.19015276 191.35297913 -222.4372416 193.44455772 -224.6015625 195.86328125 C-228.81417174 200.44185076 -231.86631544 201.74518025 -237.96118164 202.06469727 C-239.56432317 202.10474743 -241.16773274 202.13525747 -242.77124023 202.15600586 C-250.32540134 202.25792896 -255.25687801 203.88050241 -261.1875 208.625 C-265.82647968 214.45686017 -268.57417919 220.36485906 -268.19921875 227.9140625 C-267.62218285 239.89273586 -272.04609838 246.06987808 -279.34375 255.17578125 C-309.67624373 293.24570616 -326.54227066 344.1497832 -335.375 391.375 C-335.58672852 392.50663574 -335.79845703 393.63827148 -336.01660156 394.80419922 C-343.74851136 438.38349749 -345.06004672 497.22041993 -326.375 538.375 C-324.14523837 541.35619541 -324.14523837 541.35619541 -321.375 543.375 C-320.51471191 544.06787109 -319.65442383 544.76074219 -318.76806641 545.47460938 C-314.44421419 547.89631506 -311.32053448 547.9119702 -306.4609375 547.84375 C-305.18459946 547.85432434 -305.18459946 547.85432434 -303.88247681 547.8651123 C-300.26832965 547.89438502 -296.65473254 547.87809784 -293.04052734 547.86572266 C-279.37896874 547.8533008 -267.22897372 548.17135924 -256.28125 557.453125 C-249.56545137 564.22397116 -247.31812469 571.7044042 -247 581.125 C-247.30772924 595.7421388 -255.51166351 607.25873877 -263.8046875 618.78515625 C-268.25763378 624.67325212 -268.25763378 624.67325212 -270.125 631.625 C-268.58365121 639.33174394 -264.97605653 644.17276113 -259.66064453 649.85375977 C-257.44305285 652.29993251 -255.39576511 654.82136807 -253.34765625 657.41015625 C-248.56957263 663.27771158 -243.41268697 668.64219435 -238.04638672 673.96435547 C-236.50120622 675.49880216 -234.96703991 677.04368002 -233.43359375 678.58984375 C-227.07033264 684.96187275 -220.43762921 690.77419055 -213.375 696.375 C-212.20101941 697.35138594 -211.02993558 698.33127803 -209.86328125 699.31640625 C-142.93896807 754.95806021 -53.96393587 780.81180821 32.31445312 773.35473633 C72.0159403 769.54038926 110.7633298 758.89375774 146.625 741.375 C147.4495166 740.97764648 148.2740332 740.58029297 149.12353516 740.17089844 C168.96947014 730.51940299 187.50192253 718.28750044 204.625 704.375 C202.08187756 701.53689705 199.20250177 699.7731905 195.9453125 697.8203125 C195.38526016 697.48263351 194.82520782 697.14495453 194.2481842 696.79704285 C193.04462586 696.07193602 191.83989906 695.34876577 190.63412476 694.62734985 C187.43717073 692.71447989 184.2486247 690.78766579 181.05859375 688.86328125 C180.4194252 688.47828964 179.78025665 688.09329803 179.12171936 687.69664001 C173.65828328 684.40351226 168.22879849 681.05759442 162.8125 677.6875 C155.67136751 673.24884608 148.50178219 668.86021432 141.3125 664.5 C133.37791452 659.68565928 125.48698271 654.80697214 117.625 649.875 C108.92383812 644.41736257 100.1809545 639.03508078 91.39916992 633.70825195 C84.22673041 629.35614093 77.07817177 624.96651428 69.9375 620.5625 C60.75205939 614.89912006 51.54167138 609.27919113 42.3125 603.6875 C25.32540458 593.39368393 8.46879629 582.90237268 -8.375 572.375 C23.965 572.045 56.305 571.715 89.625 571.375 C86.38940278 565.62387189 86.38940278 565.62387189 82.6640625 560.421875 C82.11766113 559.73053467 81.57125977 559.03919434 81.00830078 558.3269043 C80.42806152 557.60027588 79.84782227 556.87364746 79.25 556.125 C74.30276872 549.84990955 69.46413201 543.51455463 64.75 537.0625 C59.20628583 529.4822875 53.55974773 521.98824273 47.83251953 514.5456543 C40.96288258 505.58840185 34.30528579 496.47379145 27.625 487.375 C37.11964602 487.24266303 46.61431524 487.11216758 56.10901642 486.98384857 C60.52060663 486.92417266 64.93218733 486.8639267 69.34375 486.80224609 C71.06249962 486.77829299 72.78124962 486.75436706 74.5 486.73046875 C75.34507614 486.71871109 76.19015228 486.70695343 77.06083679 486.69483948 C83.68157501 486.60405968 90.30242737 486.52921013 96.92341614 486.45933533 C101.67267969 486.40644485 106.41967268 486.31628683 111.16796875 486.203125 C113.30989019 486.16633672 115.45181684 486.12984952 117.59375 486.09375 C118.51965942 486.06212769 119.44556885 486.03050537 120.39953613 485.9979248 C126.31780386 485.92660015 130.68809651 487.02432523 135.625 490.375 C137.63429536 492.342781 139.2918694 494.12594836 141 496.3125 C141.46422363 496.88315186 141.92844727 497.45380371 142.40673828 498.04174805 C143.83173568 499.80544259 145.23246666 501.58559465 146.625 503.375 C147.04007813 503.90834961 147.45515625 504.44169922 147.8828125 504.99121094 C149.50329392 507.08346155 151.11578362 509.18168835 152.71655273 511.2890625 C156.07609665 515.70450062 159.55164539 520.01671493 163.0625 524.3125 C167.13421405 529.29503904 171.16576875 534.30257469 175.125 539.375 C179.06685031 544.42353686 183.0752462 549.41262563 187.125 554.375 C191.62962983 559.89475768 196.06795679 565.45921783 200.45214844 571.07495117 C204.54857952 576.30853605 208.73647789 581.46555313 212.94726562 586.60742188 C216.92357274 591.47296666 220.76355083 596.41027964 224.625 601.375 C199.215 601.705 173.805 602.035 147.625 602.375 C151.67842028 608.45513042 155.77103561 614.39634369 160.125 620.25 C161.36330601 621.92315876 162.60158653 623.59633638 163.83984375 625.26953125 C164.78126221 626.53917725 164.78126221 626.53917725 165.74169922 627.83447266 C168.72928185 631.86464958 171.70961061 635.90015717 174.6875 639.9375 C175.26765869 640.72374756 175.84781738 641.50999512 176.44555664 642.32006836 C180.35381387 647.62541713 184.21724453 652.96137731 188.0625 658.3125 C193.2863644 665.5796177 198.6340424 672.74687733 204.0234375 679.8918457 C208.27712296 685.54306059 212.44308463 691.25033506 216.5625 697 C223.58287251 707.10660543 223.58287251 707.10660543 231.625 716.375 C234.625 716.54166667 234.625 716.54166667 237.625 716.375 C239.02141614 715.18421963 239.02141614 715.18421963 239.05859375 711.796875 C238.98987474 706.3909792 236.17211599 703.49327973 232.6875 699.625 C231.56846421 698.34354416 230.45494697 697.05724315 229.34765625 695.765625 C228.85015869 695.20907227 228.35266113 694.65251953 227.84008789 694.07910156 C226.49350944 692.1905909 226.04281604 690.64005157 225.625 688.375 C226.03226318 687.99802979 226.43952637 687.62105957 226.85913086 687.23266602 C242.29197426 673.01810281 242.29197426 673.01810281 256.21484375 657.35546875 C257.97210877 655.18238413 259.74713674 653.04561035 261.56640625 650.92578125 C262.06414551 650.34538086 262.56188477 649.76498047 263.07470703 649.16699219 C264.04530132 648.03872013 265.01880557 646.91294293 265.99560547 645.79003906 C270.64780481 640.36557126 272.31239072 636.59293135 272.17333984 629.43359375 C271.11416578 623.52560947 267.43925797 619.1171544 263.9375 614.375 C254.71520975 601.55115404 248.22803693 590.57167324 249.625 574.375 C251.38950561 566.64264422 255.59858623 560.46829163 261.625 555.375 C269.97753437 550.27781236 276.64559629 548.25102356 286.3359375 548.1640625 C288.07292612 548.13599551 289.80990516 548.10733106 291.546875 548.078125 C294.27441148 548.03688795 297.00176893 547.99998291 299.72949219 547.97363281 C302.36951159 547.94594364 305.00872945 547.90007836 307.6484375 547.8515625 C308.45799896 547.84830963 309.26756042 547.84505676 310.10165405 547.84170532 C315.92129465 547.71607959 320.10226618 546.54014242 324.63671875 542.6484375 C325.46623047 541.70871094 325.46623047 541.70871094 326.3125 540.75 C326.87324219 540.13898438 327.43398438 539.52796875 328.01171875 538.8984375 C332.43402365 531.9812245 333.59152424 523.43665713 335.125 515.5 C335.33930664 514.4066333 335.55361328 513.3132666 335.77441406 512.18676758 C337.06909949 505.49414217 338.29107493 498.79256299 339.375 492.0625 C339.54805664 491.00023193 339.54805664 491.00023193 339.72460938 489.91650391 C348.59680157 432.31446822 338.70631666 370.50311967 315.625 317.375 C315.01615967 315.96420166 315.01615967 315.96420166 314.39501953 314.52490234 C294.5872203 268.9975294 264.49390811 226.73455191 226.625 194.375 C225.68914063 193.56160156 224.75328125 192.74820313 223.7890625 191.91015625 C205.83645144 176.40125234 186.50711031 163.23867004 165.84423828 151.62402344 C164.47216116 150.8517961 163.10276125 150.07476339 161.73779297 149.29003906 C137.17029028 135.17078464 109.59493555 125.64525855 82.1875 118.8125 C81.19999756 118.56072998 80.21249512 118.30895996 79.19506836 118.04956055 C71.50000065 116.23592361 62.7628677 114.57932156 55.3125 117.8125 C47.7901632 124.98496067 42.46376035 134.02034884 36.76171875 142.640625 C33.76234126 147.17367984 30.74249928 151.6917311 27.6875 156.1875 C27.25147461 156.83855713 26.81544922 157.48961426 26.36621094 158.16040039 C21.39533012 165.44547687 15.59955543 171.58677387 6.625 173.375 C-2.21610027 174.52376138 -9.15233302 172.61790014 -16.375 167.375 C-19.92114851 163.72804125 -22.65835246 159.6535022 -25.375 155.375 C-25.8390625 154.65521973 -26.303125 153.93543945 -26.78125 153.19384766 C-31.23903823 146.26773332 -35.59936679 139.28188843 -39.89453125 132.25390625 C-45.17274578 122.83719332 -45.17274578 122.83719332 -53.375 116.375 C-62.84565274 115.37513367 -71.64002835 116.91975632 -80.75 119.375 Z " fill="#FAFAFA" transform="translate(510.375,55.625)"/>
<path d="M0 0 C1.37418091 0.01522705 1.37418091 0.01522705 2.77612305 0.03076172 C15.09719016 0.31204969 23.66675695 2.59913026 32.5625 11.26171875 C36.70410179 15.65354232 38.92808603 19.63311669 40.625 25.375 C43.84434551 35.71510126 46.86017315 44.118211 56.8125 49.57421875 C64.80533963 53.22479454 72.97946492 53.65219704 81.4375 51.25 C89.2467375 48.19665849 93.30842471 42.60904247 97.87890625 35.83984375 C103.10070767 28.46857597 109.60645169 23.14561407 118.625 21.375 C132.22918857 20.19286965 147.07489505 23.47257152 157.875 32.19140625 C163.72051189 37.68231908 168.1964208 44.21260643 168.7668457 52.41455078 C168.77804443 53.12595215 168.78924316 53.83735352 168.80078125 54.5703125 C169.10041847 67.44544975 169.10041847 67.44544975 173.625 79.375 C174.16125 80.4475 174.6975 81.52 175.25 82.625 C180.69870976 88.93403235 188.41753946 92.43301735 196.48828125 94.1484375 C206.75681806 94.89012509 214.29341717 89.53369943 222.00390625 83.4375 C229.47707673 77.55697241 237.39198362 77.38574824 246.625 78.375 C258.58477416 82.60993642 273.16461489 92.93733157 279.75 103.9375 C284.24348508 114.23573626 282.0321436 125.36849274 278.53125 135.55859375 C275.94897507 143.58368092 278.39348943 150.83835199 281.625 158.375 C285.13655263 164.73968914 291.9375981 168.14586603 298.625 170.375 C305.01200913 170.98471449 310.4823827 170.66088684 316.5 168.375 C324.83231083 165.32127352 333.54571799 164.97046139 342 167.875 C353.93035876 173.49959002 362.49865087 187.62711657 367.625 199.375 C370.0167353 207.34206422 369.02670445 215.87217523 365.625 223.375 C363.77821795 226.36011511 361.86303677 229.27585925 359.90698242 232.18896484 C355.56443676 238.76520463 352.53343747 245.39993079 354.05859375 253.37890625 C356.39020479 261.59582517 360.36775589 268.80304181 367.5625 273.69140625 C373.5003793 276.5649157 379.65394246 276.81871096 386.125 277.3125 C396.50712234 278.12584599 403.44550296 279.83532653 410.9375 287.4375 C415.16620149 292.56991592 417.4635837 298.13730049 419.625 304.375 C420.08712891 305.61056641 420.08712891 305.61056641 420.55859375 306.87109375 C423.69366779 316.00630948 425.22843469 326.74423155 421.89453125 336 C418.04692347 343.19798624 411.88802738 348.41926615 405.34375 353.09375 C399.53910598 357.42084827 397.32797934 363.6150676 396.30078125 370.5703125 C395.89411079 378.39521314 398.55162577 386.15808534 403.375 392.3125 C408.3051878 397.4628947 414.56090732 399.35201932 421.125 401.75 C431.27476843 405.63389983 436.90157119 410.47050915 441.625 420.375 C443.43218772 425.92995837 442.88851579 432.01572231 442.92016602 437.79931641 C442.93163817 439.25579582 442.95201413 440.71223478 442.98168945 442.16845703 C443.18804723 452.31111447 442.70491254 461.30269822 436.3125 469.6875 C430.82899954 475.17100046 425.93919876 477.73651106 418.6875 480.3125 C409.65427341 483.57841425 403.92046238 486.44204961 399.1875 495.1875 C395.08778191 504.31920085 394.86605107 510.21332962 398.41015625 519.65234375 C401.14656224 525.78506071 404.67360742 528.45616652 410.0625 532.1875 C416.9216525 537.04067394 421.81266387 542.88838662 423.37109375 551.3203125 C423.45488281 551.99835937 423.53867187 552.67640625 423.625 553.375 C423.76615234 554.39207031 423.76615234 554.39207031 423.91015625 555.4296875 C424.68692969 566.94186817 420.37269804 583.01983639 413.625 592.375 C407.43964821 599.39654249 400.45691935 603.85985772 391.04296875 604.69140625 C389.77066406 604.75199219 388.49835937 604.81257812 387.1875 604.875 C378.08696561 605.31534844 370.79862695 606.68922024 364.1875 613.3125 C359.08982914 619.67934406 356.09684644 627.84080429 356.5625 636.0625 C358.02268693 644.04972252 362.79662733 650.94089346 367.390625 657.46484375 C371.25965492 663.45204511 370.33349209 672.48541104 369.625 679.375 C368.58824926 683.23636755 366.88463233 686.09701319 364.625 689.375 C364.27083008 689.91753418 363.91666016 690.46006836 363.55175781 691.01904297 C350.67433211 710.73323061 350.67433211 710.73323061 339.9609375 713.97265625 C331.62647224 715.40819124 323.93869708 714.71125297 315.875 712.3125 C306.81411665 709.6767772 300.08636157 710.0543424 291.59375 714.2109375 C285.02319434 718.0959089 281.07858808 724.39167848 278.75 731.5 C276.79392084 739.32431663 278.46365054 746.45366539 281.25 753.875 C283.74854037 760.89895787 283.93892742 769.5139621 280.83203125 776.39453125 C276.3088246 783.81610332 269.89906942 789.19958362 263 794.3125 C262.37899414 794.77309814 261.75798828 795.23369629 261.11816406 795.70825195 C252.24699585 802.05167729 243.43912054 804.40303318 232.58203125 803.13671875 C227.64065846 802.16027982 224.07876938 799.91496384 219.99609375 797.03515625 C217.4872184 795.27853018 214.92769441 793.6561941 212.3125 792.0625 C211.51199219 791.57136719 210.71148438 791.08023438 209.88671875 790.57421875 C204.22134068 787.57029635 198.02786303 787.57262036 191.875 789.0234375 C184.23318992 791.50702578 178.33190597 794.9737464 174.05859375 801.921875 C170.48031962 809.13959035 169.76635379 815.60430951 169.53125 823.5390625 C169.0490331 833.83439331 166.35931749 841.76235108 158.62109375 848.8515625 C146.62525364 858.00690035 131.36058955 861.01713177 116.625 859.375 C106.90122063 856.64882413 100.50977254 849.32209366 95.0625 841.1875 C90.73888211 834.7905108 86.12908515 831.51241513 78.625 829.375 C69.47215219 828.24575254 61.55185973 829.58633987 53.625 834.375 C46.64566303 840.17011734 43.55381 847.82177437 41.25 856.375 C38.51565925 865.75611587 32.84444922 872.21461536 24.625 877.375 C17.12829314 881.30702955 7.3851253 880.57619571 -0.875 880.625 C-2.18404297 880.6559375 -2.18404297 880.6559375 -3.51953125 880.6875 C-14.83910585 880.75457896 -22.82501797 877.42463618 -31.0625 869.81640625 C-35.646293 865.03780205 -37.39746792 859.59129282 -39.375 853.375 C-42.5765639 843.53509135 -45.04028937 837.9038333 -54.4375 833.0625 C-63.01773041 828.94009422 -70.06982912 827.99387731 -79.1875 831.1875 C-82.73027022 832.52179008 -85.37090266 834.10074844 -88.375 836.375 C-89.035 836.375 -89.695 836.375 -90.375 836.375 C-90.64957031 836.95636719 -90.92414063 837.53773438 -91.20703125 838.13671875 C-95.71206209 846.77010562 -102.74880719 855.04155054 -111.92578125 858.65625 C-125.30623333 862.58288985 -139.24912051 858.49362143 -151.375 852.375 C-158.37953383 847.72014461 -164.34567894 841.69716761 -166.375 833.375 C-166.80289606 828.78157272 -166.94614848 824.18190232 -166.92407227 819.56958008 C-166.97966212 810.72766092 -169.3036311 802.48744107 -175.4921875 795.91015625 C-182.29086125 790.36683927 -190.69456932 787.99538933 -199.375 788.375 C-207.2979262 789.34363361 -212.35297218 793.45537678 -218.5 798.27734375 C-226.28781745 803.95948773 -234.37323186 804.15166672 -243.69921875 803.1171875 C-254.59042251 800.78732048 -267.42924298 791.09698174 -274.1484375 782.34765625 C-279.12542929 774.34325863 -280.61754068 766.74961589 -279.375 757.375 C-278.61139856 754.48338552 -277.68512764 751.65258739 -276.75 748.8125 C-273.98325485 740.28644653 -273.9660309 734.0200176 -277.546875 725.62890625 C-281.47855521 718.1962636 -286.86743887 714.44096552 -294.375 711 C-301.49024724 709.51765683 -306.78349469 710.38427454 -313.6875 712.375 C-323.09096886 715.08002689 -332.508537 716.23846072 -341.375 711.375 C-352.64324925 705.02798614 -360.72263376 691.67973247 -366.375 680.375 C-367.15109591 670.26357899 -367.21772739 662.04382923 -361.375 653.375 C-356.17982391 645.31657345 -353.05088237 638.18740853 -354.375 628.375 C-356.64253266 620.1064158 -360.05464564 613.99702268 -367.375 609.375 C-372.96099923 606.20798131 -377.98506116 605.19380389 -384.375 604.875 C-394.27786553 604.37073707 -401.22386036 601.52172387 -408.41015625 594.61328125 C-417.64396841 584.09444553 -421.27481675 567.21385438 -420.7265625 553.55078125 C-420.2615446 549.35011951 -419.58858882 546.9905284 -417.375 543.375 C-417.00761719 542.75753906 -416.64023437 542.14007812 -416.26171875 541.50390625 C-413.24821843 536.94365356 -409.76893576 534.08547367 -405.3125 530.9375 C-398.82403245 526.28447984 -394.9346039 521.27799282 -393.375 513.375 C-392.45934322 503.97825989 -394.43383476 496.95975758 -399.5 489.0625 C-404.11109663 484.75212707 -409.46224736 482.46104611 -415.33984375 480.26953125 C-424.42049156 476.84529726 -432.32633778 471.92122025 -436.9375 463.0625 C-439.78992785 455.74540247 -439.59411816 449.06310448 -439.625 441.25 C-439.6559375 439.32800781 -439.6559375 439.32800781 -439.6875 437.3671875 C-439.73750403 425.16620325 -438.26139954 417.35784568 -429.625 408.5 C-425.19631247 404.31735067 -421.32423375 402.30417925 -415.5625 400.5 C-407.18590978 397.81865971 -400.6351689 394.25946269 -396.3046875 386.375 C-392.50617083 378.20340112 -392.25482226 370.9557033 -395.25 362.5625 C-397.71948189 355.54367162 -397.71948189 355.54367162 -403.375 351.375 C-410.74956935 346.95025839 -416.81345756 341.81160123 -419.375 333.375 C-421.91665141 318.69843667 -418.11793895 302.51919985 -410.2578125 290.00390625 C-408.12050218 287.44445812 -406.00556208 285.41610502 -403.375 283.375 C-402.70726562 282.83875 -402.03953125 282.3025 -401.3515625 281.75 C-395.47332191 278.01508901 -389.2594882 277.89677327 -382.5 277.4375 C-372.76614806 276.77008684 -364.45885456 275.81687249 -357.43359375 268.296875 C-352.61683676 261.65787501 -349.3785484 253.63131322 -350.375 245.375 C-351.98234174 238.63488032 -354.73172847 233.63109267 -359 228.1875 C-362.60470003 223.57656187 -364.97525009 220.2416001 -365.375 214.375 C-365.45363281 213.43785156 -365.53226562 212.50070312 -365.61328125 211.53515625 C-366.23154632 197.52703622 -357.9131246 186.6336837 -349.51953125 176.03125 C-344.40604714 170.49265439 -338.41932496 166.89187561 -330.890625 165.9296875 C-322.85715925 165.67968338 -316.08158313 167.07416673 -308.453125 169.46875 C-300.59520182 171.78225023 -293.554399 170.17900992 -286.375 166.375 C-279.81327794 161.01182127 -275.91605367 153.38927799 -274.375 145.125 C-273.96741423 140.00359625 -275.75874619 135.71177964 -277.37109375 130.9140625 C-280.30255786 120.57979604 -280.48114679 110.84611185 -275.29296875 101.40625 C-268.94237895 91.73646976 -255.29218911 82.01406304 -244.375 78.375 C-232.19425587 77.40717697 -224.20669464 78.77111906 -214.375 86.4375 C-207.74437322 91.57988991 -200.67639324 94.19442303 -192.23828125 93.8125 C-183.35919718 92.45580503 -176.86649049 88.76311385 -170.99609375 82.046875 C-166.9157981 75.3217612 -165.96341292 68.61744594 -165.875 60.875 C-165.74648457 49.62071984 -162.95108433 41.28968786 -155.3125 32.8125 C-150.96261585 28.60203521 -145.97325421 26.50655286 -140.375 24.375 C-139.60542969 24.05402344 -138.83585937 23.73304687 -138.04296875 23.40234375 C-129.4814983 20.26654111 -117.70598919 19.68731077 -108.9375 22.3125 C-100.33752805 26.44895183 -94.49277873 34.32155465 -89.1640625 41.921875 C-84.48542504 48.33712462 -79.06442013 50.81308654 -71.375 52.375 C-62.97795846 53.32305308 -54.06831798 50.89328899 -47.375 45.625 C-42.38773122 40.73410357 -40.54454296 35.06629099 -38.62646484 28.50708008 C-35.38364145 17.47061214 -30.78439769 9.24887441 -20.375 3.375 C-13.58910872 0.70051539 -7.25186362 -0.11680314 0 0 Z M-11.375 31.375 C-12.52086066 33.93184203 -13.39774687 36.51167995 -14.265625 39.17578125 C-19.5364229 54.37572308 -27.71091671 65.30235533 -41.99609375 72.75 C-46.04245317 74.69599482 -50.00829512 76.32456006 -54.375 77.375 C-55.09429687 77.55546875 -55.81359375 77.7359375 -56.5546875 77.921875 C-72.25911076 80.44502334 -85.9900644 77.70402278 -99.55078125 69.42578125 C-106.35455838 64.48527918 -111.36870506 57.68875666 -116.18359375 50.87109375 C-117.32205759 49.22601934 -117.32205759 49.22601934 -119.375 48.375 C-126.46520081 47.65151012 -131.91834462 49.93004863 -137.6171875 53.9609375 C-140.25090001 57.57790268 -139.83741949 60.88866022 -139.8125 65.25 C-140.14503018 78.5702453 -143.97573574 88.8712221 -152.375 99.375 C-152.9834375 100.19871094 -153.591875 101.02242188 -154.21875 101.87109375 C-161.45956401 110.27935784 -171.99874761 115.10596971 -182.375 118.375 C-183.30119141 118.67664063 -183.30119141 118.67664063 -184.24609375 118.984375 C-199.12535721 121.71451508 -213.75979613 118.46058369 -226.375 110.375 C-227.261875 109.611875 -228.14875 108.84875 -229.0625 108.0625 C-231.62449364 106.19293707 -233.8652134 105.23111554 -237.046875 104.93359375 C-242.99370921 106.06109755 -248.19681001 111.19681001 -252.375 115.375 C-252.86608387 120.97335608 -252.00464679 125.04521149 -250.109375 130.29296875 C-245.88761316 142.26211269 -248.89180948 155.09580551 -253.66015625 166.4296875 C-261.06617775 180.99417547 -273.00152572 190.27791227 -288.375 195.375 C-297.99183356 198.10763847 -310.06085571 197.3847913 -319.37890625 194.07421875 C-322.70901869 192.90770187 -324.90891182 192.65562321 -328.375 193.375 C-331.1327657 195.74862786 -333.24579798 198.43703132 -335.375 201.375 C-336.014375 202.220625 -336.65375 203.06625 -337.3125 203.9375 C-338.8750064 207.52207351 -339.01510845 209.47033844 -338.375 213.375 C-336.80647345 215.90573192 -335.05547622 218.23737125 -333.26171875 220.61328125 C-325.0896016 232.57536577 -323.74790472 246.62592176 -325.87109375 260.65234375 C-329.41476983 274.60681962 -337.54380837 286.97179074 -349.68359375 294.875 C-359.50281124 300.34753921 -368.04803518 302.61001364 -379.17578125 302.62890625 C-383.10325297 302.7595927 -384.79335583 302.83802458 -387.765625 305.58203125 C-391.06756771 311.31234445 -394.65574066 318.65111156 -393.375 325.375 C-391.31044413 328.81592646 -388.78270956 330.84896839 -385.5625 333.125 C-376.72395681 339.58140795 -370.62540545 349.66158258 -368.375 360.375 C-367.06289638 377.56521825 -367.57252205 392.88208619 -378.37109375 407.0625 C-386.86440327 416.86374608 -396.04296734 422.18355747 -408.5 425.50390625 C-411.21549555 426.76548023 -412.00408516 427.66660728 -413.375 430.375 C-413.86438092 433.693232 -413.88461821 436.96295852 -413.875 440.3125 C-413.90335938 441.20646484 -413.93171875 442.10042969 -413.9609375 443.02148438 C-413.97412919 447.46378455 -413.8754111 449.69074612 -411.1953125 453.35546875 C-408.39550558 455.36031664 -405.98252813 456.59116916 -402.75 457.75 C-387.51246768 463.78892385 -377.46765521 473.28415551 -370.75 488.140625 C-365.03543087 501.58285011 -366.22184867 516.49537221 -371.37109375 529.984375 C-375.50026272 539.18570655 -382.36588688 546.50435177 -390.74609375 552.0234375 C-392.71569231 553.65768475 -393.488854 554.98061561 -394.375 557.375 C-394.92602664 564.51008849 -391.85125746 571.310501 -388.375 577.375 C-385.96302629 578.58098685 -383.72516049 578.70358336 -381.0690918 578.96948242 C-366.46610586 580.46306465 -353.23377672 585.35717818 -342.9921875 596.3828125 C-335.48312687 605.63310458 -329.06014659 617.27074362 -328.375 629.375 C-328.32472656 630.09558594 -328.27445312 630.81617188 -328.22265625 631.55859375 C-327.74483137 643.50421587 -331.34946144 654.32468588 -337.62109375 664.37109375 C-339.84314391 667.81801314 -339.84314391 667.81801314 -340.1484375 671.7890625 C-338.3364093 677.84745981 -333.91474875 684.26733607 -328.375 687.375 C-324.09602425 687.9623104 -320.92745092 687.27416064 -316.9375 685.875 C-304.0236911 681.77942176 -290.18656064 684.25225769 -278.15234375 689.8828125 C-264.00810808 697.57184074 -254.77790691 709.72513423 -249.94189453 724.99658203 C-248.9638083 729.10016347 -248.9318116 733.11185223 -249 737.3125 C-249.00652588 738.19059326 -249.01305176 739.06868652 -249.01977539 739.97338867 C-249.14897041 746.21008974 -250.10720481 751.54851081 -252.375 757.375 C-253.69025218 760.90543258 -253.69025218 760.90543258 -253.375 764.375 C-249.9792185 769.9537839 -245.3039616 773.78781676 -239.375 776.375 C-233.89056886 777.07288059 -231.43295539 775.41432555 -227.125 772.125 C-215.06109727 763.23526107 -203.14439621 761.2088278 -188.375 762.375 C-172.78492955 765.2651084 -158.81504669 774.2251319 -149.68359375 787.2109375 C-143.44242272 797.53215766 -141.02052633 807.47105686 -141.07226562 819.37109375 C-140.96604297 823.18825626 -140.75728034 824.97519578 -138.07421875 827.78125 C-132.45045293 831.1017948 -127.02680903 833.37904665 -120.375 832.375 C-117.55398387 830.20498759 -115.76193192 827.88065937 -113.60546875 825.0625 C-104.39074107 813.13969653 -94.05635222 806.96978397 -79.375 803.375 C-61.51471965 801.9197179 -45.49467487 805.76982447 -31.265625 816.78125 C-22.6478554 824.68483979 -17.6138386 834.60928822 -13.96875 845.61328125 C-12.53460725 849.42256239 -11.05686691 851.38972926 -7.375 853.375 C-4.53941771 853.91775102 -1.81717638 853.93504538 1.0625 853.875 C1.80048828 853.89046875 2.53847656 853.9059375 3.29882812 853.921875 C8.4696289 853.88510486 11.69368114 852.99900337 15.625 849.375 C16.84813817 846.78125311 17.73792511 844.51904956 18.5625 841.8125 C23.54884364 827.26680206 31.57380372 816.60845958 45.5 809.5 C60.57454026 802.48366431 75.68698012 801.16070955 91.625 806.375 C103.83664086 811.21442805 111.66580203 818.38644055 118.99609375 829.15234375 C120.43451046 831.4702035 120.43451046 831.4702035 122.625 832.375 C129.0607995 833.05965952 134.89165141 831.33296966 140.625 828.375 C143.39030523 825.85563298 143.61591971 824.46522936 143.99609375 820.6875 C144.02585419 819.25013764 144.04759609 817.81259316 144.0625 816.375 C144.58623686 802.29246413 149.60247064 789.45582528 159.375 779.0625 C172.02755352 767.35706661 187.34233177 761.77559586 204.41796875 762.1015625 C215.76329438 762.6220612 226.11301587 767.59972518 234.55859375 775.08984375 C237.47090428 776.90109169 239.2464907 776.83763507 242.625 776.375 C245.62094302 774.77913921 245.62094302 774.77913921 248.375 772.5625 C249.31859375 771.85480469 250.2621875 771.14710938 251.234375 770.41796875 C254.24281019 767.84703475 255.53125335 766.29371713 255.9375 762.3125 C255.673601 758.98737258 255.23687421 757.14444986 254.125 754.125 C250.70643663 743.51117469 251.10253566 729.5687805 255.625 719.375 C255.9653125 718.56160156 256.305625 717.74820313 256.65625 716.91015625 C262.93345551 703.14695902 273.5073781 692.90479803 287.625 687.375 C298.75106936 683.44815199 311.58506987 682.23046638 322.75390625 686.671875 C326.17159168 687.95618268 329.1126375 688.58949077 332.625 687.375 C337.705745 683.05861487 341.96574417 677.96428172 343.1875 671.3125 C342.59490106 667.16430742 341.68162648 665.64325993 339.375 662.25 C330.89555872 649.53943792 329.84596782 635.10779072 332.09765625 620.2578125 C332.74910554 617.81585287 333.55877883 615.66495229 334.625 613.375 C335.0271875 612.48941406 335.429375 611.60382812 335.84375 610.69140625 C342.74696976 596.86579111 353.85846468 587.11019004 368.125 581.3515625 C373.16728922 579.94467377 378.25714469 579.53402578 383.48242188 579.3581543 C386.01881229 579.26155169 386.01881229 579.26155169 389.625 578.375 C394.40412464 572.94067278 396.0444374 566.14865688 397.125 559.125 C396.07324556 553.34035058 391.74103172 550.40306931 387.25 547.125 C377.51712923 539.6717551 372.7984113 529.22948287 370.625 517.375 C369.31058531 506.81697589 370.62234942 497.26234217 374.625 487.375 C375.11613281 486.08722656 375.11613281 486.08722656 375.6171875 484.7734375 C380.86513402 472.70699113 390.84441339 463.81337223 402.625 458.375 C405.51406364 457.28568092 408.38889334 456.27651197 411.34765625 455.39453125 C414.2900917 454.07724883 415.19051579 453.28994547 416.625 450.375 C417.08119482 447.22120609 417.08903757 444.11959623 417.0625 440.9375 C417.08248047 440.09123047 417.10246094 439.24496094 417.12304688 438.37304688 C417.11996678 434.43977175 416.93920857 431.95388673 415.0390625 428.453125 C412.04149724 425.87269665 409.30103613 424.84218507 405.5625 423.5625 C391.43567114 418.35589179 381.32750129 409.27737574 374.9140625 395.64453125 C369.00971751 380.66896532 368.71143318 364.82667334 375.06640625 350.015625 C379.24101263 341.60829708 384.27674883 336.31994857 391.75390625 330.8046875 C395.6445119 327.81083608 395.6445119 327.81083608 397.375 323.3125 C396.70037074 316.92505278 393.85203923 309.91599237 390.453125 304.51171875 C387.44360278 302.64041327 384.12889655 302.97277713 380.6875 302.9375 C365.19603792 302.36422746 352.49827012 296.31898347 341.76171875 285.0234375 C330.67960036 271.28728344 326.9708631 256.8064704 328.625 239.375 C330.3617258 230.47550679 334.62266946 222.33602832 340.3046875 215.29296875 C341.91868309 213.3253315 341.91868309 213.3253315 341.6875 210.1875 C339.82782856 203.51456131 335.74866446 196.89610706 329.625 193.375 C325.08990582 192.6695409 321.68255101 193.90529506 317.5546875 195.62109375 C306.87973595 199.79167199 294.89663827 197.6611898 284.625 193.375 C270.13757011 186.47111366 259.85876153 175.53491903 254.25 160.4375 C250.06889087 148.0941387 250.12727204 135.23278415 254.84765625 123.07421875 C255.72894404 120.01406869 255.60502611 118.38143427 254.625 115.375 C250.60056045 110.49689146 245.12227239 105.8191723 238.703125 105.00390625 C234.88598486 105.46409447 233.27924929 106.7164391 230.3125 109.125 C218.38319143 118.26165582 205.46939207 120.82997594 190.625 119.375 C175.27070917 116.38897217 162.19841366 108.11252228 152.8125 95.625 C147.47118712 87.55620821 143.72524687 78.03296683 143.484375 68.30859375 C143.46503906 67.57576172 143.44570313 66.84292969 143.42578125 66.08789062 C143.39184592 64.56732668 143.37369143 63.04633099 143.37109375 61.52539062 C143.24285662 57.69514993 143.02032641 55.79477959 140.3515625 52.9609375 C135.3326647 50.04163591 130.7685056 48.44766121 124.9375 48.25 C119.46519305 50.10851934 117.15537253 54.25888755 113.859375 58.81640625 C108.91452457 65.39948965 103.91622461 69.5548637 96.625 73.375 C95.7175 73.88289063 94.81 74.39078125 93.875 74.9140625 C81.46578463 80.8216411 64.72506352 80.60243556 51.8125 76.3125 C36.14762579 69.53644263 25.87332733 59.71644806 18.625 44.375 C17.75269168 41.483921 17.06596116 38.60332875 16.3984375 35.66015625 C15.10558724 31.8403714 12.99357367 30.48035854 9.625 28.375 C2.67069926 26.05689975 -6.15536766 25.76389523 -11.375 31.375 Z " fill="#0F2D4F" transform="translate(510.375,55.625)"/>
<path d="M0 0 C20.04624769 -0.07032176 40.09247009 -0.12310105 60.13881588 -0.15543652 C69.44829895 -0.17085466 78.75770504 -0.1918466 88.06713867 -0.22631836 C96.18854455 -0.25637645 104.30989462 -0.27561164 112.43135458 -0.28226548 C116.72498176 -0.28615017 121.01844941 -0.2951721 125.31202507 -0.31719017 C129.36758983 -0.33781577 133.422932 -0.34378222 137.47854424 -0.33932304 C138.95335609 -0.34013676 140.42817676 -0.34594517 141.90294266 -0.35761642 C174.4803908 -0.60240795 203.51361649 11.56024677 227 34 C227.88365234 34.78890625 227.88365234 34.78890625 228.78515625 35.59375 C239.60343627 45.61920098 247.08116483 58.65292188 253 72 C253.48210937 73.07765625 253.96421875 74.1553125 254.4609375 75.265625 C266.77966379 104.979886 265.71298743 139.68819907 254.3125 169.5 C248.49236916 183.24076003 241.5555802 195.52674762 232 207 C231.44441406 207.69609375 230.88882812 208.3921875 230.31640625 209.109375 C226.64957936 213.60098951 222.43882816 217.28808795 218 221 C217.19820312 221.70125 216.39640625 222.4025 215.5703125 223.125 C196.76888065 239.1926925 176.23854929 247.46268411 151.38745117 247.43237305 C149.86830358 247.44141305 148.34916322 247.45174566 146.83003235 247.46325684 C142.74826786 247.49059062 138.66664264 247.50007882 134.58479857 247.50611091 C130.30332897 247.51555678 126.0219609 247.54176467 121.74055481 247.56611633 C113.65200118 247.60961536 105.56346745 247.63826386 97.47483283 247.66143972 C88.25820273 247.6885809 79.04167563 247.73248653 69.82511938 247.77772844 C50.88346747 247.87033671 31.9417883 247.94212591 13 248 C10.30413022 259.0264106 7.60838807 270.05285239 4.9127903 281.07932949 C3.65985411 286.20451177 2.40688081 291.32968496 1.15380859 296.45483398 C-5.57291922 323.96774802 -12.29196007 351.48252338 -19 379 C-20.44920368 378.85221581 -21.89802776 378.70070567 -23.34667969 378.54760742 C-24.1535321 378.46363205 -24.96038452 378.37965668 -25.79168701 378.2931366 C-31.20802575 377.57415921 -34.99354911 374.96269215 -38.875 371.25 C-42.89914296 365.09542841 -43.2962301 358.66697449 -43.24050903 351.52111816 C-43.24221788 350.7057394 -43.24392673 349.89036063 -43.24568737 349.05027342 C-43.24896174 346.33876257 -43.23801265 343.62750338 -43.22705078 340.91601562 C-43.22648622 338.96412156 -43.2268041 337.01222707 -43.22793579 335.06033325 C-43.22850856 329.77581413 -43.21676644 324.49138618 -43.20278788 319.2068882 C-43.19026795 313.67890513 -43.18910902 308.15091987 -43.18673706 302.6229248 C-43.18052601 292.16129438 -43.16412024 281.69970585 -43.14403808 271.23809385 C-43.12166744 259.32520252 -43.11068271 247.41230916 -43.10064721 235.49940205 C-43.0797537 210.99957815 -43.04458498 186.49979143 -43 162 C-42.07400403 161.99761165 -41.14800806 161.99522329 -40.19395161 161.99276257 C-17.62389295 161.93387126 4.94605977 161.85792913 27.5160017 161.76428509 C38.43082397 161.71939032 49.34561407 161.67996114 60.26049805 161.65356445 C69.77801047 161.63053314 79.29542055 161.59707796 88.81285173 161.55129844 C93.8485335 161.52743535 98.88411435 161.50866136 103.9198513 161.50238609 C108.66819795 161.49630385 113.41628661 161.47619155 118.16453743 161.44572449 C119.89900795 161.43699431 121.63351226 161.43321116 123.36800385 161.43499184 C138.73613943 161.44577922 151.2702359 159.67728909 164.1875 150.8125 C172.20619903 142.79380097 176.02656 132.7771853 176.4375 121.5625 C176.13826428 110.50378871 171.90529819 101.72919585 164.03515625 94.09375 C154.69849563 86.12466534 144.11038131 84.40071317 132.16308594 84.45410156 C130.9421373 84.44376389 129.72118866 84.43342621 128.46324158 84.42277527 C125.15593366 84.39855043 121.84947207 84.39150389 118.54213619 84.39249516 C115.07075262 84.38934026 111.59953226 84.36366922 108.12823486 84.34051514 C101.57314096 84.30014699 95.01814605 84.27965993 88.46294713 84.26654124 C80.99234799 84.25060568 73.52191575 84.21216297 66.05141401 84.17194796 C50.70099246 84.08981204 35.35060447 84.0355562 20 84 C22.0402214 86.67818748 24.08244745 89.3548401 26.125 92.03125 C26.69476563 92.77922852 27.26453125 93.52720703 27.8515625 94.29785156 C31.5056182 99.08341882 35.21802047 103.81497568 39 108.5 C43.75243647 114.40321685 48.3894172 120.38455704 52.9753418 126.41796875 C55.93744184 130.31216077 58.91962895 134.1887203 61.93359375 138.04296875 C62.58086426 138.87078857 63.22813477 139.6986084 63.89501953 140.55151367 C65.15570786 142.1613231 66.41834829 143.76960603 67.68310547 145.3762207 C68.53026123 146.45842896 68.53026123 146.45842896 69.39453125 147.5625 C69.89831299 148.20316406 70.40209473 148.84382812 70.92114258 149.50390625 C72 151 72 151 72 152 C60.40193306 152.13191129 48.80385095 152.26239317 37.20574856 152.39115143 C31.81774051 152.45101005 26.42973843 152.51132377 21.04174805 152.57275391 C15.82215137 152.63224611 10.60254159 152.69044328 5.38292122 152.74781799 C3.41188117 152.76969701 1.44084587 152.79200857 -0.53018379 152.81480408 C-14.68730737 152.97812486 -28.84195776 153.02798347 -43 153 C-43.06957157 139.44789904 -43.12284779 125.89584072 -43.15543652 112.34359741 C-43.17107903 106.0504525 -43.1922918 99.75742996 -43.22631836 93.46435547 C-43.25896176 87.38893433 -43.27686366 81.31363075 -43.28463173 75.23812866 C-43.29016625 72.92253774 -43.30097382 70.60695311 -43.31719017 68.29141235 C-43.3390302 65.0430928 -43.34196412 61.7952564 -43.34057617 58.546875 C-43.35675491 57.11727699 -43.35675491 57.11727699 -43.3732605 55.65879822 C-43.34008596 48.46332548 -42.37656381 42.73304839 -37.5 37.125 C-32.02327229 33.1503845 -24.90095724 33.19485263 -18.390625 32.51171875 C-17.58463867 32.42623779 -16.77865234 32.34075684 -15.94824219 32.25268555 C-14.33534761 32.08621707 -12.72137111 31.92987257 -11.10644531 31.78442383 C-7.35977123 31.41695223 -5.18664237 31.12442825 -2 29 C-0.78875706 25.80958167 -0.80446559 22.52503643 -0.68359375 19.140625 C-0.62075195 17.46806641 -0.62075195 17.46806641 -0.55664062 15.76171875 C-0.51732422 14.60285156 -0.47800781 13.44398438 -0.4375 12.25 C-0.37272461 10.48849609 -0.37272461 10.48849609 -0.30664062 8.69140625 C-0.20065206 5.79438549 -0.09858362 2.89728065 0 0 Z " fill="#FAFAFA" transform="translate(471,275)"/>
<path d="M0 0 C0.81281549 -0.0034177 1.62563098 -0.0068354 2.46307725 -0.01035666 C5.18417463 -0.01694049 7.90428356 0.00504841 10.62528992 0.0269165 C12.5767413 0.02804487 14.52819438 0.02741133 16.47964478 0.02514648 C21.77684902 0.02399801 27.07369157 0.04752917 32.3708117 0.07544231 C37.9068063 0.10043356 43.44280902 0.10279618 48.97885132 0.10754395 C59.46189117 0.11998039 69.94476432 0.15281116 80.42773074 0.1929419 C92.36229985 0.23763871 104.29687689 0.25964141 116.23150885 0.27972364 C140.78172872 0.32154312 165.33178885 0.39271324 189.88188171 0.48101807 C189.88188171 7.74101807 189.88188171 15.00101807 189.88188171 22.48101807 C186.54063171 22.85226807 186.54063171 22.85226807 183.13188171 23.23101807 C173.56610556 24.43248624 163.77810662 26.72335407 155.88188171 32.48101807 C149.57446463 41.1750254 149.58794129 50.95441793 149.6211853 61.35852051 C149.61735976 62.63518986 149.61353421 63.91185922 149.60959274 65.22721553 C149.59935086 68.75050728 149.60148479 72.27369684 149.60577333 75.79699683 C149.60824755 79.60490488 149.59921769 83.41278876 149.59173584 87.22068787 C149.57900546 94.67347429 149.57719313 102.12622465 149.5795361 109.57902011 C149.58132153 115.63991102 149.5795648 121.700791 149.57531166 127.7616806 C149.57441888 129.05725349 149.57441888 129.05725349 149.57350806 130.37899958 C149.57229626 132.13385226 149.57108213 133.88870495 149.56986568 135.64355764 C149.55899623 152.0906068 149.56114963 168.53763544 149.56725053 184.98468575 C149.57241735 200.0132644 149.56116938 215.04177818 149.54215231 230.070344 C149.52275415 245.51909736 149.51452149 260.96782007 149.51827556 276.41658568 C149.52018483 285.08284245 149.5177269 293.74904403 149.50356102 302.41529083 C149.49162091 309.79431103 149.49027162 317.1732421 149.50235119 324.55226359 C149.50822189 328.31288941 149.50938983 332.07335242 149.49734879 335.83396721 C149.48441442 339.92129956 149.4949975 344.00824784 149.50765991 348.09558105 C149.50028563 349.26944185 149.49291134 350.44330266 149.48531359 351.65273499 C149.55114743 361.79871446 150.52382472 373.08247978 156.77641296 381.48101807 C169.44978029 393.51954139 188.5116753 393.85139474 204.88188171 394.48101807 C204.88188171 401.41101807 204.88188171 408.34101807 204.88188171 415.48101807 C138.22188171 415.48101807 71.56188171 415.48101807 2.88188171 415.48101807 C3.21188171 409.54101807 3.54188171 403.60101807 3.88188171 397.48101807 C6.50125671 396.73851807 9.12063171 395.99601807 11.81938171 395.23101807 C22.70677289 392.05218012 32.88471393 388.66172558 40.25688171 379.54351807 C45.30219048 370.03505155 45.03019748 359.52031283 45.02232361 349.04093933 C45.02529473 347.79920395 45.02826585 346.55746857 45.03132701 345.27810484 C45.03847831 341.84764344 45.04118406 338.41723215 45.04192448 334.98676693 C45.0437829 331.28037723 45.05133418 327.57399822 45.05805969 323.86761475 C45.07161172 315.77023361 45.07766288 307.67285745 45.08207035 299.57546687 C45.08483815 294.51383215 45.08907648 289.45219932 45.09357452 284.39056587 C45.10576324 270.36036645 45.11606325 256.33016855 45.11944962 242.29996395 C45.11966918 241.40289692 45.11988875 240.50582989 45.12011497 239.581579 C45.12033324 238.68243656 45.12055152 237.78329411 45.12077641 236.85690492 C45.12121987 235.0350761 45.12166644 233.21324728 45.12211609 231.39141846 C45.12244823 230.0359002 45.12244823 230.0359002 45.12278709 228.65299774 C45.12673256 214.02016762 45.14418069 199.38738737 45.16747561 184.7545765 C45.19123095 169.71039373 45.20365337 154.66623595 45.20481753 139.62203413 C45.20573196 131.18372953 45.21142547 122.74548992 45.22963715 114.30720329 C45.24509471 107.11999393 45.25012543 99.93286966 45.24189904 92.74564683 C45.23801242 89.084012 45.23882385 85.42254822 45.25295639 81.76093483 C46.53480493 55.46622678 46.53480493 55.46622678 35.88188171 32.48101807 C22.67576501 20.11073153 4.0111465 19.26313252 -13.11811829 17.48101807 C-13.2534785 15.39947871 -13.35027294 13.31540601 -13.43061829 11.23101807 C-13.4886261 10.07086182 -13.54663391 8.91070557 -13.60639954 7.71539307 C-13.11811829 4.48101807 -13.11811829 4.48101807 -11.0949831 2.30893326 C-7.34108046 0.00388546 -4.27060673 -0.06583161 0 0 Z " fill="#F55C20" transform="translate(270.1181182861328,273.51898193359375)"/>
<path d="M0 0 C11.07226031 2.3649488 18.24743962 5.6543172 25 15 C26.74335424 18.68231441 27.25141065 21.58460155 27.25726891 25.64454079 C27.2637178 26.77633251 27.27016669 27.90812423 27.276811 29.07421267 C27.2737138 30.31281239 27.2706166 31.55141212 27.26742554 32.82754517 C27.27195665 34.14712703 27.27648776 35.4667089 27.28115618 36.82627809 C27.29339349 40.48787966 27.29312485 44.14938991 27.29076743 47.81100726 C27.29035944 51.76073793 27.30139692 55.71043924 27.31088257 59.66015625 C27.32749871 67.39890341 27.33299244 75.13762011 27.33410732 82.87638362 C27.33505773 89.16860438 27.33916764 95.4608151 27.34550858 101.75303268 C27.36312445 119.59713395 27.37234717 137.44121116 27.37084763 155.28532119 C27.37076772 156.24739078 27.3706878 157.20946038 27.37060547 158.20068359 C27.37052371 159.16392986 27.37044195 160.12717612 27.37035771 161.11961167 C27.36954522 176.72209896 27.38867251 192.32448962 27.4168822 207.92694898 C27.44562671 223.95187313 27.45942156 239.97675018 27.45769465 256.00170076 C27.45703118 264.99661423 27.46250439 273.99142646 27.48405075 282.98631668 C27.5022834 290.64694378 27.50659298 298.30742377 27.4930319 305.96806319 C27.48651208 309.87427766 27.48634898 313.7802101 27.5037384 317.68639755 C27.51951884 321.26813095 27.51655552 324.84935988 27.49917014 328.43108134 C27.49467086 330.32851172 27.50971878 332.22595806 27.52564943 334.1233269 C27.44466217 344.22682838 25.2468094 353.35393373 18.76953125 361.33984375 C14.7537065 365.10744975 10.18455512 366.93758414 4.71875 367.09375 C3.8215625 367.0628125 2.924375 367.031875 2 367 C2.39832031 366.2471875 2.79664063 365.494375 3.20703125 364.71875 C4.00173828 363.12546875 4.00173828 363.12546875 4.8125 361.5 C5.33457031 360.4790625 5.85664063 359.458125 6.39453125 358.40625 C12.52900661 343.15715603 11.43578253 326.31924216 11.39217401 310.20973384 C11.38531852 306.45579561 11.39589642 302.70189749 11.40411377 298.94796753 C11.41738357 291.6157688 11.41460405 284.28366272 11.40587585 276.95146052 C11.39907448 270.98894094 11.39819313 265.02644715 11.4014473 259.06392479 C11.401907 258.2122594 11.40236669 257.36059402 11.40284032 256.48312059 C11.40379958 254.75250663 11.40477223 253.02189268 11.4057581 251.29127874 C11.41429179 235.10266128 11.40450887 218.91409496 11.388357 202.72548588 C11.37494839 188.85724823 11.37729031 174.98908591 11.39111328 161.12084961 C11.40719237 144.98175655 11.41347562 128.84270817 11.40427649 112.70360821 C11.40332092 110.98061479 11.40237781 109.25762135 11.4014473 107.53462791 C11.40098447 106.6870669 11.40052164 105.83950589 11.40004479 104.96626121 C11.39746242 99.01449206 11.40180944 93.06275144 11.40888596 87.11098671 C11.41732677 79.85290213 11.4149665 72.5949148 11.39904372 65.33684126 C11.3911967 61.63895359 11.38800801 57.94122767 11.39799118 54.24334145 C11.40867696 50.22424797 11.39585949 46.20555771 11.38095093 42.18647766 C11.38764309 41.03295549 11.39433526 39.87943332 11.40123022 38.69095594 C11.32587637 28.16904346 9.76610531 18.0284086 4.375 8.875 C1.0397351 3.1192053 1.0397351 3.1192053 0 0 Z " fill="#FBFAFA" transform="translate(320,298)"/>
<path d="M0 0 C7.98088792 4.48396177 12.30162682 10.50404736 15.2109375 19.2421875 C16.6603674 27.88040059 15.43505226 35.00472012 11.10546875 42.609375 C5.86004432 49.89889266 -1.0125598 53.72759844 -9.7890625 55.2421875 C-18.65578122 56.34879826 -25.63753303 53.95664907 -33.0390625 49.1171875 C-40.45981473 41.35912835 -43.17319266 33.9592786 -43.0703125 23.4140625 C-42.40556487 15.91718641 -39.22138842 9.43832533 -33.7890625 4.2421875 C-23.11787942 -3.02584585 -12.2370832 -5.74232059 0 0 Z " fill="#0B2C4E" transform="translate(525.7890625,136.7578125)"/>
<path d="M0 0 C5.95047295 3.33945461 9.21109702 7.84586636 12.0625 13.9375 C13.59218867 21.43297448 13.0438466 26.85162565 9.3046875 33.6328125 C5.86126047 38.6731912 1.87643721 42.08462626 -3.75 44.4375 C-12.54161432 45.82564963 -18.80961576 45.27367415 -26.3125 40 C-31.67182172 34.71802932 -33.93220569 29.10717853 -34.625 21.625 C-34.07810015 15.28096176 -32.40442331 9.12099566 -27.94140625 4.3515625 C-19.57387637 -2.59128004 -10.01735206 -4.41544453 0 0 Z " fill="#0C2B4E" transform="translate(232.3125,623)"/>
<path d="M0 0 C5.56586584 4.37403161 8.49542582 8.98388962 9.4609375 16.01953125 C9.86703509 24.34001973 8.6687853 30.45781766 3.01171875 36.74609375 C-4.11673766 42.54551591 -10.9549696 43.53909439 -19.98828125 42.74609375 C-26.69888905 40.97241459 -31.07568064 36.28442869 -34.98828125 30.74609375 C-38.04204024 24.7713479 -38.10976539 17.38178886 -36.1484375 11.0234375 C-32.86421427 3.69198967 -28.17744654 -0.37305653 -20.92578125 -3.62890625 C-13.39681048 -5.23081492 -6.51574031 -4.10914074 0 0 Z " fill="#0B2B4D" transform="translate(815.98828125,624.25390625)"/>
<path d="M0 0 C0.81025222 -0.00085442 1.62050443 -0.00170885 2.45530975 -0.00258917 C5.1853877 -0.00424356 7.91540495 0.00127675 10.64547729 0.00672913 C12.59648639 0.00701103 14.5474956 0.0068532 16.49850464 0.00628662 C21.80814345 0.00599878 27.11775985 0.01189334 32.42739344 0.01886058 C37.97143091 0.02509635 43.51546884 0.02569809 49.05950928 0.02688599 C59.56382355 0.02999864 70.06812746 0.03821114 80.57243717 0.04823548 C92.52872384 0.05939865 104.485011 0.06490758 116.44130158 0.06993091 C141.04175542 0.08039381 165.64219933 0.09819255 190.24264526 0.12025452 C189.91264526 7.05025452 189.58264526 13.98025452 189.24264526 21.12025452 C188.91264526 21.12025452 188.58264526 21.12025452 188.24264526 21.12025452 C188.24264526 14.85025452 188.24264526 8.58025452 188.24264526 2.12025452 C162.60879563 2.20447479 136.97500895 2.29915426 111.34125042 2.4077816 C99.43966145 2.45795182 87.53807952 2.50439418 75.63644409 2.54212952 C65.26572589 2.57502031 54.89506164 2.61483528 44.52440292 2.66304457 C39.03074829 2.68833858 33.53712959 2.71011125 28.04343224 2.72359848 C22.87657552 2.73639254 17.70984182 2.75841809 12.54305267 2.78763771 C10.64312123 2.79673431 8.74316996 2.80240855 6.84321785 2.80446815 C4.25610107 2.80777603 1.6693362 2.82321312 -0.91770935 2.84178162 C-1.67548764 2.83984688 -2.43326593 2.83791215 -3.2140072 2.83591878 C-6.94191785 2.8761248 -8.5726572 2.99712282 -11.75735474 5.12025452 C-9.13082825 -0.69562556 -5.8960165 -0.02246216 0 0 Z " fill="#E85D1C" transform="translate(269.7573547363281,273.87974548339844)"/>
<path d="M0 0 C5.37648713 0.7290152 10.26790238 2.36452491 15.34570312 4.18359375 C19.60148264 5.6619632 23.5504792 6.49476409 28 7 C28 7.66 28 8.32 28 9 C28.66 9.33 29.32 9.66 30 10 C22.32239826 9.23749846 15.45339867 7.70208789 8.25 5 C7.54681641 4.73880371 6.84363281 4.47760742 6.11914062 4.20849609 C1.13267481 2.26534962 1.13267481 2.26534962 0 0 Z " fill="#4F3D58" transform="translate(358,906)"/>
<path d="M0 0 C0.33 0.99 0.66 1.98 1 3 C0.38253906 2.7834375 -0.23492188 2.566875 -0.87109375 2.34375 C-11.23992104 -1.06517952 -18.64960615 -0.25021713 -29 3 C-28 0 -28 0 -26.4609375 -0.984375 C-19.04873885 -3.70495727 -6.8119538 -4.79970595 0 0 Z " fill="#4A485F" transform="translate(723,844)"/>
<path d="M0 0 C2.60887636 2.60887636 2.95273335 4.4209835 3.25 8.0625 C2.90843665 13.4421227 2.09990289 19.64974373 -1.60546875 23.796875 C-2.06566406 24.19390625 -2.52585937 24.5909375 -3 25 C-4 22 -4 22 -2.625 19.0625 C-2.08875 18.051875 -1.5525 17.04125 -1 16 C0.13848471 12.56966372 0.10158727 9.34602909 0.0625 5.75 C0.04896484 4.13351562 0.04896484 4.13351562 0.03515625 2.484375 C0.02355469 1.66453125 0.01195312 0.8446875 0 0 Z " fill="#372D47" transform="translate(931,372)"/>
<path d="M0 0 C0.66 0.99 1.32 1.98 2 3 C1.5390625 5.12109375 1.5390625 5.12109375 0.625 7.4375 C-0.64979002 10.71315609 -1 12.34352755 -1 16 C-2.32 16.33 -3.64 16.66 -5 17 C-3.83348574 11.07136283 -2.24480642 5.61201606 0 0 Z " fill="#50405A" transform="translate(97,352)"/>
<path d="M0 0 C2.45898655 -0.08076963 4.91533742 -0.14037143 7.375 -0.1875 C8.07367187 -0.21263672 8.77234375 -0.23777344 9.4921875 -0.26367188 C11.5234375 -0.29296875 11.5234375 -0.29296875 15 0 C15.66 0.99 16.32 1.98 17 3 C10.73 3 4.46 3 -2 3 C-1.34 2.67 -0.68 2.34 0 2 C0 1.34 0 0.68 0 0 Z " fill="#2E334E" transform="translate(742,134)"/>
<path d="M0 0 C0.33 0 0.66 0 1 0 C1.5644718 7.33813334 -0.44672896 13.16088115 -3 20 C-3.33 20 -3.66 20 -4 20 C-3.56615452 12.96871122 -2.25678003 6.670985 0 0 Z " fill="#4B3C55" transform="translate(931,620)"/>
<path d="M0 0 C0.33 0 0.66 0 1 0 C1.33217441 7.38165355 1.28913446 13.29522591 -2 20 C-2.66 20.33 -3.32 20.66 -4 21 C-3.56075854 17.92530975 -3.04255365 15.11968215 -2 12.1875 C-0.73424585 8.15290866 -0.3546112 4.19934316 0 0 Z " fill="#6A4F67" transform="translate(792,814)"/>
<path d="M0 0 C1.49376828 3.88568837 0.43417739 6.47074152 -0.875 10.3125 C-2.38153037 14.92559988 -3.55119702 19.17536793 -4 24 C-4.33 24 -4.66 24 -5 24 C-5.27023817 16.70356948 -4.31364308 9.94092924 -2 3 C-1.34 3 -0.68 3 0 3 C0 2.01 0 1.02 0 0 Z " fill="#6E586F" transform="translate(791,177)"/>
<path d="M0 0 C-0.99442805 2.5312714 -1.66349256 3.7857988 -3.98828125 5.265625 C-11.74175824 8.54945055 -11.74175824 8.54945055 -16 8 C-14.68 7.67 -13.36 7.34 -12 7 C-12 6.34 -12 5.68 -12 5 C-10.37750059 4.16180842 -8.75191503 3.3295884 -7.125 2.5 C-6.22007812 2.0359375 -5.31515625 1.571875 -4.3828125 1.09375 C-2 0 -2 0 0 0 Z " fill="#56445D" transform="translate(407,907)"/>
<path d="M0 0 C5.43261068 0.63913067 9.38223392 3.0586807 12.875 7.25 C13.24625 7.8275 13.6175 8.405 14 9 C13.01 9 12.02 9 11 9 C11 8.34 11 7.68 11 7 C10.2575 6.71125 9.515 6.4225 8.75 6.125 C6.43260203 5.17697356 4.22082885 4.15154089 2 3 C2 2.34 2 1.68 2 1 C1.34 0.67 0.68 0.34 0 0 Z " fill="#50445C" transform="translate(848,223)"/>
<path d="M0 0 C2 2 2 2 3 5 C3.66 5.66 4.32 6.32 5 7 C4.96712417 9.72869407 4.43602229 12.2966618 4 15 C0.73154287 10.09731431 -0.27944109 5.86826297 0 0 Z " fill="#483C57" transform="translate(93,626)"/>
<path d="M0 0 C5.66442374 0.36504064 10.00703705 1.0554321 15 4 C15 4.66 15 5.32 15 6 C4.44191344 2.92482916 4.44191344 2.92482916 0 1 C0 0.67 0 0.34 0 0 Z " fill="#54425C" transform="translate(90,533)"/>
<path d="M0 0 C0.33 0 0.66 0 1 0 C1.03738281 0.68964844 1.07476562 1.37929688 1.11328125 2.08984375 C1.56078148 8.48646465 2.65649801 14.03070248 5 20 C4.01 20 3.02 20 2 20 C-0.07965362 13.24112575 -0.21133202 7.04440079 0 0 Z " fill="#625168" transform="translate(145,258)"/>
<path d="M0 0 C0.66 0.33 1.32 0.66 2 1 C0.92807816 2.3218362 -0.15802695 3.63217927 -1.25 4.9375 C-1.85328125 5.66839844 -2.4565625 6.39929688 -3.078125 7.15234375 C-5.10741134 9.10326334 -6.254407 9.61731779 -9 10 C-7.61811547 6.78956118 -6.07578097 4.95063635 -3.375 2.75 C-2.74335938 2.22921875 -2.11171875 1.7084375 -1.4609375 1.171875 C-0.73777344 0.59179688 -0.73777344 0.59179688 0 0 Z " fill="#56455F" transform="translate(246,146)"/>
<path d="M0 0 C6.30596952 1.10938353 11.37529486 2.93197901 17 6 C13.98968256 6.93423645 13.13349732 7.04449911 10 6 C10 5.34 10 4.68 10 4 C7.36 3.67 4.72 3.34 2 3 C2 2.34 2 1.68 2 1 C1.34 0.67 0.68 0.34 0 0 Z " fill="#6B4C67" transform="translate(647,79)"/>
<path d="M0 0 C0.33 0 0.66 0 1 0 C1.97338076 3.71654471 2.19817948 5.52814409 0.6875 9.125 C0.130625 10.07375 -0.42625 11.0225 -1 12 C-1.391875 12.78375 -1.78375 13.5675 -2.1875 14.375 C-2.455625 14.91125 -2.72375 15.4475 -3 16 C-3.66 16 -4.32 16 -5 16 C-4.5978125 14.824375 -4.5978125 14.824375 -4.1875 13.625 C-2.70766479 9.10760831 -1.35097726 4.55729662 0 0 Z " fill="#694A65" transform="translate(236,200)"/>
<path d="M0 0 C0.99 0.33 1.98 0.66 3 1 C5.03378419 5.92881372 5.32088682 10.84854139 4 16 C3.67 16 3.34 16 3 16 C2.01 10.72 1.02 5.44 0 0 Z " fill="#4B4961" transform="translate(115,415)"/>
<path d="M0 0 C-2.99203186 1.66223992 -5.65761211 2.34782675 -9 3 C-9.86625 3.37125 -10.7325 3.7425 -11.625 4.125 C-14 5 -14 5 -17 4 C-11.15439723 1.36536213 -6.45512034 -0.56131481 0 0 Z " fill="#0B1938" transform="translate(811,740)"/>
<path d="M0 0 C0.33 0.66 0.66 1.32 1 2 C0.27931168 3.73620367 -0.44747119 5.47067912 -1.23046875 7.1796875 C-2.17352248 9.41046435 -2.63800012 11.61080078 -3 14 C-3.33 14 -3.66 14 -4 14 C-5.46704593 8.53191971 -4.56294428 5.84111698 -2 1 C-1.34 0.67 -0.68 0.34 0 0 Z " fill="#664963" transform="translate(683,857)"/>
<path d="M0 0 C-1.24460783 0.67667998 -2.49596896 1.34094719 -3.75 2 C-4.44609375 2.37125 -5.1421875 2.7425 -5.859375 3.125 C-8 4 -8 4 -12 4 C-12 3.34 -12 2.68 -12 2 C-10.75579353 1.4654744 -9.50429064 0.94791389 -8.25 0.4375 C-7.55390625 0.14746094 -6.8578125 -0.14257812 -6.140625 -0.44140625 C-3.69987216 -1.07831803 -2.3596345 -0.80248831 0 0 Z " fill="#4D3F58" transform="translate(767,854)"/>
<path d="M0 0 C1 3 1 3 0.00390625 5.48046875 C-0.47175781 6.37378906 -0.94742188 7.26710938 -1.4375 8.1875 C-1.91058594 9.08855469 -2.38367188 9.98960937 -2.87109375 10.91796875 C-3.24363281 11.60503906 -3.61617187 12.29210937 -4 13 C-5.53271273 8.41201223 -4.02911182 6.22055258 -2 2 C-1.34 2 -0.68 2 0 2 C0 1.34 0 0.68 0 0 Z " fill="#52455E" transform="translate(877,271)"/>
<path d="M0 0 C8.97478992 -0.29915966 8.97478992 -0.29915966 12 2 C12.33 2.99 12.66 3.98 13 5 C11.58208592 4.54554036 10.16571954 4.08625056 8.75 3.625 C7.96109375 3.36976563 7.1721875 3.11453125 6.359375 2.8515625 C4.13372042 2.04826333 2.09068328 1.10288338 0 0 Z " fill="#694A65" transform="translate(446,884)"/>
<path d="M0 0 C0.99 0.33 1.98 0.66 3 1 C2.34 2.32 1.68 3.64 1 5 C0.34 5 -0.32 5 -1 5 C-1.66 6.98 -2.32 8.96 -3 11 C-4 8 -4 8 -3.22265625 5.95703125 C-2.83980469 5.24933594 -2.45695313 4.54164063 -2.0625 3.8125 C-1.68222656 3.09707031 -1.30195312 2.38164063 -0.91015625 1.64453125 C-0.60980469 1.10183594 -0.30945313 0.55914063 0 0 Z " fill="#0C203F" transform="translate(888,535)"/>
<path d="M0 0 C5.28 0 10.56 0 16 0 C16 0.66 16 1.32 16 2 C13.89807303 2.24887295 11.79326036 2.4734719 9.6875 2.6875 C8.51574219 2.81511719 7.34398437 2.94273437 6.13671875 3.07421875 C3 3 3 3 0 0 Z " fill="#514D65" transform="translate(201,226)"/>
<path d="M0 0 C3.94139078 1.66751148 6.7892812 4.22710649 10 7 C9.34 7.66 8.68 8.32 8 9 C8 8.34 8 7.68 8 7 C5.525 6.01 5.525 6.01 3 5 C3 4.34 3 3.68 3 3 C2.01 2.67 1.02 2.34 0 2 C0 1.34 0 0.68 0 0 Z " fill="#444058" transform="translate(774,145)"/>
<path d="M0 0 C4.3890815 0.51035831 7.33708062 1.52214277 11 4 C8 5 8 5 5.95703125 4.22265625 C5.24933594 3.83980469 4.54164063 3.45695313 3.8125 3.0625 C3.09707031 2.68222656 2.38164062 2.30195312 1.64453125 1.91015625 C1.10183594 1.60980469 0.55914062 1.30945313 0 1 C0 0.67 0 0.34 0 0 Z " fill="#54435D" transform="translate(486,930)"/>
<path d="M0 0 C0.33 0.66 0.66 1.32 1 2 C1.66 2 2.32 2 3 2 C4.6875 4.25 4.6875 4.25 6 7 C5.58203125 9.171875 5.58203125 9.171875 5 11 C4.15841464 9.73461631 3.32700252 8.46246221 2.5 7.1875 C1.80390625 6.12595703 1.80390625 6.12595703 1.09375 5.04296875 C0 3 0 3 0 0 Z " fill="#5C465F" transform="translate(473,913)"/>
<path d="M0 0 C0.33 0.66 0.66 1.32 1 2 C0.27931168 3.73620367 -0.44747119 5.47067912 -1.23046875 7.1796875 C-2.17352248 9.41046435 -2.63800012 11.61080078 -3 14 C-3.33 14 -3.66 14 -4 14 C-4.0270043 12.54176788 -4.04639787 11.08339325 -4.0625 9.625 C-4.07410156 8.81289063 -4.08570313 8.00078125 -4.09765625 7.1640625 C-4 5 -4 5 -3 3 C-2.34 3 -1.68 3 -1 3 C-0.67 2.01 -0.34 1.02 0 0 Z " fill="#744D67" transform="translate(555,898)"/>
<path d="M0 0 C0.33 0.66 0.66 1.32 1 2 C1.66 2 2.32 2 3 2 C4.6875 4.25 4.6875 4.25 6 7 C5.58203125 9.171875 5.58203125 9.171875 5 11 C4.15841464 9.73461631 3.32700252 8.46246221 2.5 7.1875 C1.80390625 6.12595703 1.80390625 6.12595703 1.09375 5.04296875 C0 3 0 3 0 0 Z " fill="#5A465F" transform="translate(345,889)"/>
<path d="M0 0 C0 3 0 3 -1.75 4.82421875 C-2.4925 5.43910156 -3.235 6.05398438 -4 6.6875 C-4.7425 7.31011719 -5.485 7.93273437 -6.25 8.57421875 C-6.8275 9.04472656 -7.405 9.51523437 -8 10 C-8.66 9.67 -9.32 9.34 -10 9 C-8.89902432 7.87187697 -7.79408444 6.74762189 -6.6875 5.625 C-6.07261719 4.99851562 -5.45773437 4.37203125 -4.82421875 3.7265625 C-3 2 -3 2 0 0 Z " fill="#061638" transform="translate(548,869)"/>
<path d="M0 0 C2 1.25 2 1.25 4 3 C4 4.32 4 5.64 4 7 C4.66 7 5.32 7 6 7 C6 8.65 6 10.3 6 12 C0 4.28571429 0 4.28571429 0 0 Z " fill="#5D435D" transform="translate(337,851)"/>
<path d="M0 0 C3.87540045 -0.17615457 6.75515269 -0.28341107 10 2 C10.33 2.99 10.66 3.98 11 5 C9.35153231 4.55123384 7.70626545 4.09069512 6.0625 3.625 C5.14597656 3.36976563 4.22945312 3.11453125 3.28515625 2.8515625 C1 2 1 2 0 0 Z " fill="#5F435E" transform="translate(713,842)"/>
<path d="M0 0 C0.33 0.66 0.66 1.32 1 2 C-3.29 1.34 -7.58 0.68 -12 0 C-12 -0.33 -12 -0.66 -12 -1 C-7.49016565 -2.36661647 -4.37909149 -1.60005266 0 0 Z " fill="#45435E" transform="translate(324,843)"/>
<path d="M0 0 C0.88336837 2.4667645 1.1312406 3.63859372 0.22265625 6.140625 C-0.16019531 6.83671875 -0.54304687 7.5328125 -0.9375 8.25 C-1.31777344 8.95640625 -1.69804688 9.6628125 -2.08984375 10.390625 C-2.39019531 10.92171875 -2.69054687 11.4528125 -3 12 C-4.13583456 8.28272326 -3.66670026 6.52948291 -2 3 C-1.34 3 -0.68 3 0 3 C0 2.01 0 1.02 0 0 Z " fill="#644863" transform="translate(879,731)"/>
<path d="M0 0 C2.72647685 2.35468455 3.98756342 4.5408417 5 8 C4.625 10.3125 4.625 10.3125 4 12 C4 11.01 4 10.02 4 9 C3.34 9 2.68 9 2 9 C0.50178941 5.62902617 0 3.79557881 0 0 Z " fill="#5D4660" transform="translate(875,710)"/>
<path d="M0 0 C0.66 0.33 1.32 0.66 2 1 C-2 7.57142857 -2 7.57142857 -6 9 C-4.68775452 5.06326356 -3.08089673 2.77280706 0 0 Z " fill="#4F435E" transform="translate(100,590)"/>
<path d="M0 0 C0.88336837 2.4667645 1.1312406 3.63859372 0.22265625 6.140625 C-0.16019531 6.83671875 -0.54304687 7.5328125 -0.9375 8.25 C-1.31777344 8.95640625 -1.69804688 9.6628125 -2.08984375 10.390625 C-2.39019531 10.92171875 -2.69054687 11.4528125 -3 12 C-3.66 11.01 -4.32 10.02 -5 9 C-4.01 7.02 -3.02 5.04 -2 3 C-1.34 3 -0.68 3 0 3 C0 2.01 0 1.02 0 0 Z " fill="#5F4862" transform="translate(932,385)"/>
<path d="M0 0 C4.77576339 0.4682121 8.04476345 1.24331998 12 4 C9.21176345 5.0326802 8.1322726 5.04509293 5.25 4.0625 C4.5075 3.711875 3.765 3.36125 3 3 C3 2.34 3 1.68 3 1 C2.01 0.67 1.02 0.34 0 0 Z " fill="#604962" transform="translate(903,334)"/>
<path d="M0 0 C5.75 -0.125 5.75 -0.125 8 1 C8.625 3.0625 8.625 3.0625 9 5 C5.12867972 4.42647107 2.91827204 2.51295648 0 0 Z " fill="#48425D" transform="translate(164,763)"/>
<path d="M0 0 C1 2 1 2 0.22265625 4.6015625 C-0.16019531 5.59929688 -0.54304687 6.59703125 -0.9375 7.625 C-1.50791016 9.12933594 -1.50791016 9.12933594 -2.08984375 10.6640625 C-2.39019531 11.43492187 -2.69054687 12.20578125 -3 13 C-3.33 13 -3.66 13 -4 13 C-4.125 5.25 -4.125 5.25 -3 3 C-2.34 3 -1.68 3 -1 3 C-0.67 2.01 -0.34 1.02 0 0 Z " fill="#7A526B" transform="translate(909,548)"/>
<path d="M0 0 C1.32 0 2.64 0 4 0 C4 0.66 4 1.32 4 2 C5.32 2.66 6.64 3.32 8 4 C7.67 5.32 7.34 6.64 7 8 C6.401875 7.236875 5.80375 6.47375 5.1875 5.6875 C3.53040668 3.6516425 1.89702326 1.8021721 0 0 Z " fill="#4E455D" transform="translate(459,889)"/>
<path d="M0 0 C2.5489287 1.27446435 2.80641644 2.46363493 4 5 C4.99 6.485 4.99 6.485 6 8 C3 8 3 8 0.75 6.25 C-1 4 -1 4 -0.75 1.75 C-0.5025 1.1725 -0.255 0.595 0 0 Z " fill="#3E3C56" transform="translate(77,519)"/>
<path d="M0 0 C0.94875 0.350625 1.8975 0.70125 2.875 1.0625 C2.875 1.7225 2.875 2.3825 2.875 3.0625 C3.865 3.3925 4.855 3.7225 5.875 4.0625 C1.31762737 3.62429109 -1.70153445 3.21208831 -5.125 0.0625 C-3.125 -0.9375 -3.125 -0.9375 0 0 Z " fill="#5B4761" transform="translate(625.125,910.9375)"/>
<path d="M0 0 C3.16115776 1.36983503 3.9927092 1.9890638 6 5 C5.625 7.1875 5.625 7.1875 5 9 C4.16094435 7.87926138 3.32892169 6.75325453 2.5 5.625 C2.0359375 4.99851562 1.571875 4.37203125 1.09375 3.7265625 C0 2 0 2 0 0 Z " fill="#554660" transform="translate(605,894)"/>
<path d="M0 0 C1.8871875 0.0309375 1.8871875 0.0309375 3.8125 0.0625 C-0.01267513 2.45323445 -3.78415524 2.62216552 -8.1875 3.0625 C-6.45706736 -0.39836529 -3.47359009 -0.0569441 0 0 Z " fill="#654762" transform="translate(809.1875,764.9375)"/>
<path d="M0 0 C0 0.66 0 1.32 0 2 C-4.61073111 3.29676812 -8.33840089 2.71109139 -13 2 C-13 1.67 -13 1.34 -13 1 C-8.61414671 0.29826347 -4.44209357 -0.10834375 0 0 Z " fill="#051A3C" transform="translate(452,109)"/>
<path d="M0 0 C0.33 0.66 0.66 1.32 1 2 C1.99 2 2.98 2 4 2 C5.6875 4.5 5.6875 4.5 7 7 C4 7 4 7 1.8125 5.1875 C0 3 0 3 0 0 Z " fill="#253D54" transform="translate(611,901)"/>
<path d="M0 0 C-3.50538557 1.96301592 -7.13351728 2.95902388 -11 4 C-10.67 3.01 -10.34 2.02 -10 1 C-6.78548731 -0.60725635 -3.56387464 -0.05748185 0 0 Z " fill="#7A4E6A" transform="translate(437,884)"/>
<path d="M0 0 C2.32947183 2.11770166 3.88750845 4.03335588 5 7 C4.67 7.99 4.34 8.98 4 10 C4 9.34 4 8.68 4 8 C3.34 8 2.68 8 2 8 C0.23537317 4.91190305 0 3.76687864 0 0 Z " fill="#53465E" transform="translate(947,469)"/>
<path d="M0 0 C0.66 0 1.32 0 2 0 C1.6875 1.9375 1.6875 1.9375 1 4 C0.01 4.33 -0.98 4.66 -2 5 C-3.20882096 7.00016466 -3.20882096 7.00016466 -4 9 C-4 4.9666466 -2.39120082 3.16482462 0 0 Z " fill="#0B1D3D" transform="translate(237,302)"/>
<path d="M0 0 C0 0.66 0 1.32 0 2 C-2.97 2.66 -5.94 3.32 -9 4 C-8.34 3.67 -7.68 3.34 -7 3 C-7 2.34 -7 1.68 -7 1 C-4.53721199 -0.231394 -2.7204945 -0.07159196 0 0 Z " fill="#614560" transform="translate(890,659)"/>
<path d="M0 0 C1.9451 2.91765 2.45276317 4.62537285 3 8 C2.01 8.495 2.01 8.495 1 9 C-0.61949011 6.42786866 -1.04408751 5.32330841 -0.625 2.25 C-0.41875 1.5075 -0.2125 0.765 0 0 Z " fill="#5B425E" transform="translate(906,570)"/>
<path d="M0 0 C6.625 0.75 6.625 0.75 10 3 C8.375 3.6875 8.375 3.6875 6 4 C2.75 2.5625 2.75 2.5625 0 1 C0 0.67 0 0.34 0 0 Z " fill="#4D405A" transform="translate(876,330)"/>
<path d="M0 0 C1.32 0.33 2.64 0.66 4 1 C4.33 3.97 4.66 6.94 5 10 C2.57244264 7.57244264 1.42454809 5.10810492 0 2 C0 1.34 0 0.68 0 0 Z " fill="#6E506A" transform="translate(155,287)"/>
<path d="M0 0 C-4.455 1.485 -4.455 1.485 -9 3 C-8 0 -8 0 -6.1875 -1.3125 C-4 -2 -4 -2 0 0 Z " fill="#684964" transform="translate(928,536)"/>
<path d="M0 0 C0.66 0 1.32 0 2 0 C1.01 2.97 0.02 5.94 -1 9 C-1.66 7.68 -2.32 6.36 -3 5 C-1.75 2.25 -1.75 2.25 0 0 Z " fill="#50415C" transform="translate(909,411)"/>
<path d="M0 0 C0.66 0.66 1.32 1.32 2 2 C0.35 3.65 -1.3 5.3 -3 7 C-3.66 6.67 -4.32 6.34 -5 6 C-3.35 4.02 -1.7 2.04 0 0 Z " fill="#553E5A" transform="translate(925,397)"/>
<path d="M0 0 C0.33 1.32 0.66 2.64 1 4 C-0.65 5.32 -2.3 6.64 -4 8 C-4.66 7.67 -5.32 7.34 -6 7 C-4.02 4.69 -2.04 2.38 0 0 Z " fill="#614360" transform="translate(605,96)"/>
<path d="M0 0 C3.36720387 1.39332574 4.9859524 2.9789286 7 6 C6.01 6 5.02 6 4 6 C0 1.54285714 0 1.54285714 0 0 Z " fill="#58415C" transform="translate(536,62)"/>
</svg>
