<?xml version="1.0" encoding="UTF-8"?>
<svg version="1.1" xmlns="http://www.w3.org/2000/svg" width="260" height="263">
<path d="M0 0 C0.89634326 -0.0055344 1.79268653 -0.01106879 2.71619171 -0.0167709 C5.69633202 -0.03029948 8.67562346 -0.01545068 11.65574646 -0.00050354 C13.80170546 -0.00428952 15.94766202 -0.00979185 18.09361267 -0.01687622 C23.90551939 -0.03081076 29.71712942 -0.01967528 35.52901959 -0.00316501 C41.61780851 0.01070899 47.70658061 0.0042228 53.79537964 0.0007019 C64.01825224 -0.00199815 74.2410073 0.01145855 84.46385193 0.03465271 C96.27627368 0.06126818 108.08849901 0.06300647 119.90094048 0.05126435 C131.2743274 0.0404791 142.6476434 0.04667907 154.0210247 0.06081963 C158.85696531 0.0665722 163.69285389 0.06650247 168.52879524 0.06175423 C174.22438808 0.05697614 179.91976627 0.06712083 185.6153183 0.08870888 C187.70344506 0.09426528 189.79159251 0.0947526 191.87972069 0.08975601 C194.7340155 0.08378344 197.58765835 0.09634626 200.44189453 0.11352539 C201.2645704 0.10751535 202.08724627 0.1015053 202.93485171 0.09531313 C210.0499946 0.17297498 216.40568851 1.84105521 221.90745544 6.62620544 C222.84331482 7.40351013 222.84331482 7.40351013 223.79808044 8.19651794 C228.86179974 14.47297674 230.24969534 21.07098296 230.15866089 28.9576416 C230.16419529 29.86623552 230.16972968 30.77482944 230.17543179 31.71095651 C230.18896296 34.73255134 230.17411009 37.75330931 230.15916443 40.77488708 C230.16295031 42.95040231 230.16845257 45.12591513 230.17553711 47.30142212 C230.1894729 53.19390334 230.17833527 59.08609196 230.1618259 64.97855687 C230.14795304 71.15142741 230.15443796 77.32428135 230.15795898 83.49716187 C230.16065913 93.86126916 230.14720155 104.22526051 230.12400818 114.58934021 C230.09739268 126.56538749 230.09565432 138.54114009 230.10739654 150.51721293 C230.11818139 162.04757668 230.11198212 173.57787048 230.09784126 185.10822868 C230.09208834 190.01115514 230.0921587 194.91403028 230.09690666 199.81695747 C230.10168438 205.59134364 230.0915416 211.36551806 230.06995201 217.13986397 C230.0643951 219.25701687 230.06390876 221.37419016 230.06890488 223.49134445 C230.07487639 226.38504769 230.06231659 229.27810756 230.0451355 232.17175293 C230.05114554 233.00610164 230.05715559 233.84045035 230.06334776 234.70008236 C229.98190445 242.26251225 228.16057141 248.99808948 222.65745544 254.50120544 C216.03012702 259.23692798 211.12153959 260.65000903 202.95378113 260.64164734 C201.60364705 260.64610402 201.60364705 260.64610402 200.22623754 260.65065074 C197.197767 260.6593508 194.16933594 260.6608471 191.14085388 260.66233826 C188.97445592 260.66696552 186.80805878 260.67199006 184.6416626 260.67738342 C178.74693044 260.69051864 172.85220968 260.69695462 166.95746517 260.70139408 C163.27603183 260.70432312 159.59460163 260.70842762 155.91316986 260.71289825 C144.39883652 260.72657642 132.88451031 260.7362414 121.3701694 260.74010015 C108.07123138 260.74458121 94.77244095 260.76213001 81.47353148 260.79110074 C71.1991345 260.81270704 60.92476646 260.82280387 50.65034699 260.82414126 C44.51158085 260.82519008 38.37291127 260.8311143 32.23416901 260.84896088 C26.45907728 260.8654232 20.68415489 260.86760592 14.90904808 260.85882187 C12.7898558 260.8580505 10.67065449 260.86240731 8.55148506 260.87228012 C5.65714271 260.884973 2.76340247 260.87913707 -0.13093567 260.86869812 C-0.96839899 260.87675452 -1.80586232 260.88481093 -2.66870332 260.89311147 C-9.69185544 260.83392176 -15.08786921 259.0216912 -20.53004456 254.37620544 C-21.16297424 253.85800232 -21.79590393 253.33979919 -22.44801331 252.80589294 C-27.57167355 246.57298667 -28.93470276 239.92435025 -28.84375 232.04476929 C-28.8492844 231.13617537 -28.85481879 230.22758144 -28.8605209 229.29145437 C-28.87405207 226.26985955 -28.8591992 223.24910158 -28.84425354 220.2275238 C-28.84803942 218.05200857 -28.85354168 215.87649576 -28.86062622 213.70098877 C-28.87456201 207.80850755 -28.86342438 201.91631893 -28.84691501 196.02385402 C-28.83304216 189.85098348 -28.83952707 183.67812954 -28.8430481 177.50524902 C-28.84574824 167.14114173 -28.83229066 156.77715038 -28.80909729 146.41307068 C-28.78248179 134.43702339 -28.78074343 122.4612708 -28.79248565 110.48519796 C-28.8032705 98.9548342 -28.79707123 87.42454041 -28.78293037 75.89418221 C-28.77717745 70.99125575 -28.77724781 66.08838061 -28.78199577 61.18545341 C-28.78677349 55.41106725 -28.77663071 49.63689283 -28.75504112 43.86254692 C-28.74948421 41.74539402 -28.74899787 39.62822073 -28.75399399 37.51106644 C-28.7599655 34.6173632 -28.7474057 31.72430333 -28.73022461 28.83065796 C-28.73623465 27.99630925 -28.7422447 27.16196053 -28.74843687 26.30232853 C-28.6805699 20.0005311 -27.50483118 14.61579447 -23.83473206 9.32933044 C-23.30106018 8.80854919 -22.76738831 8.28776794 -22.21754456 7.75120544 C-21.44023987 6.95456482 -21.44023987 6.95456482 -20.64723206 6.14183044 C-14.13443442 1.50560162 -7.89425137 -0.09241853 0 0 Z " fill="#FBFBFB" transform="translate(29.342544555664063,0.4987945556640625)"/>
<path d="M0 0 C0.89634326 -0.0055344 1.79268653 -0.01106879 2.71619171 -0.0167709 C5.69633202 -0.03029948 8.67562346 -0.01545068 11.65574646 -0.00050354 C13.80170546 -0.00428952 15.94766202 -0.00979185 18.09361267 -0.01687622 C23.90551939 -0.03081076 29.71712942 -0.01967528 35.52901959 -0.00316501 C41.61780851 0.01070899 47.70658061 0.0042228 53.79537964 0.0007019 C64.01825224 -0.00199815 74.2410073 0.01145855 84.46385193 0.03465271 C96.27627368 0.06126818 108.08849901 0.06300647 119.90094048 0.05126435 C131.2743274 0.0404791 142.6476434 0.04667907 154.0210247 0.06081963 C158.85696531 0.0665722 163.69285389 0.06650247 168.52879524 0.06175423 C174.22438808 0.05697614 179.91976627 0.06712083 185.6153183 0.08870888 C187.70344506 0.09426528 189.79159251 0.0947526 191.87972069 0.08975601 C194.7340155 0.08378344 197.58765835 0.09634626 200.44189453 0.11352539 C201.2645704 0.10751535 202.08724627 0.1015053 202.93485171 0.09531313 C210.0499946 0.17297498 216.40568851 1.84105521 221.90745544 6.62620544 C222.84331482 7.40351013 222.84331482 7.40351013 223.79808044 8.19651794 C228.86179974 14.47297674 230.24969534 21.07098296 230.15866089 28.9576416 C230.16419529 29.86623552 230.16972968 30.77482944 230.17543179 31.71095651 C230.18896296 34.73255134 230.17411009 37.75330931 230.15916443 40.77488708 C230.16295031 42.95040231 230.16845257 45.12591513 230.17553711 47.30142212 C230.1894729 53.19390334 230.17833527 59.08609196 230.1618259 64.97855687 C230.14795304 71.15142741 230.15443796 77.32428135 230.15795898 83.49716187 C230.16065913 93.86126916 230.14720155 104.22526051 230.12400818 114.58934021 C230.09739268 126.56538749 230.09565432 138.54114009 230.10739654 150.51721293 C230.11818139 162.04757668 230.11198212 173.57787048 230.09784126 185.10822868 C230.09208834 190.01115514 230.0921587 194.91403028 230.09690666 199.81695747 C230.10168438 205.59134364 230.0915416 211.36551806 230.06995201 217.13986397 C230.0643951 219.25701687 230.06390876 221.37419016 230.06890488 223.49134445 C230.07487639 226.38504769 230.06231659 229.27810756 230.0451355 232.17175293 C230.05114554 233.00610164 230.05715559 233.84045035 230.06334776 234.70008236 C229.98190445 242.26251225 228.16057141 248.99808948 222.65745544 254.50120544 C216.03012702 259.23692798 211.12153959 260.65000903 202.95378113 260.64164734 C201.60364705 260.64610402 201.60364705 260.64610402 200.22623754 260.65065074 C197.197767 260.6593508 194.16933594 260.6608471 191.14085388 260.66233826 C188.97445592 260.66696552 186.80805878 260.67199006 184.6416626 260.67738342 C178.74693044 260.69051864 172.85220968 260.69695462 166.95746517 260.70139408 C163.27603183 260.70432312 159.59460163 260.70842762 155.91316986 260.71289825 C144.39883652 260.72657642 132.88451031 260.7362414 121.3701694 260.74010015 C108.07123138 260.74458121 94.77244095 260.76213001 81.47353148 260.79110074 C71.1991345 260.81270704 60.92476646 260.82280387 50.65034699 260.82414126 C44.51158085 260.82519008 38.37291127 260.8311143 32.23416901 260.84896088 C26.45907728 260.8654232 20.68415489 260.86760592 14.90904808 260.85882187 C12.7898558 260.8580505 10.67065449 260.86240731 8.55148506 260.87228012 C5.65714271 260.884973 2.76340247 260.87913707 -0.13093567 260.86869812 C-0.96839899 260.87675452 -1.80586232 260.88481093 -2.66870332 260.89311147 C-9.69185544 260.83392176 -15.08786921 259.0216912 -20.53004456 254.37620544 C-21.16297424 253.85800232 -21.79590393 253.33979919 -22.44801331 252.80589294 C-27.57167355 246.57298667 -28.93470276 239.92435025 -28.84375 232.04476929 C-28.8492844 231.13617537 -28.85481879 230.22758144 -28.8605209 229.29145437 C-28.87405207 226.26985955 -28.8591992 223.24910158 -28.84425354 220.2275238 C-28.84803942 218.05200857 -28.85354168 215.87649576 -28.86062622 213.70098877 C-28.87456201 207.80850755 -28.86342438 201.91631893 -28.84691501 196.02385402 C-28.83304216 189.85098348 -28.83952707 183.67812954 -28.8430481 177.50524902 C-28.84574824 167.14114173 -28.83229066 156.77715038 -28.80909729 146.41307068 C-28.78248179 134.43702339 -28.78074343 122.4612708 -28.79248565 110.48519796 C-28.8032705 98.9548342 -28.79707123 87.42454041 -28.78293037 75.89418221 C-28.77717745 70.99125575 -28.77724781 66.08838061 -28.78199577 61.18545341 C-28.78677349 55.41106725 -28.77663071 49.63689283 -28.75504112 43.86254692 C-28.74948421 41.74539402 -28.74899787 39.62822073 -28.75399399 37.51106644 C-28.7599655 34.6173632 -28.7474057 31.72430333 -28.73022461 28.83065796 C-28.73623465 27.99630925 -28.7422447 27.16196053 -28.74843687 26.30232853 C-28.6805699 20.0005311 -27.50483118 14.61579447 -23.83473206 9.32933044 C-23.30106018 8.80854919 -22.76738831 8.28776794 -22.21754456 7.75120544 C-21.44023987 6.95456482 -21.44023987 6.95456482 -20.64723206 6.14183044 C-14.13443442 1.50560162 -7.89425137 -0.09241853 0 0 Z M-3.82643318 25.01257133 C-5.97859144 28.5452501 -5.89244886 31.80637126 -5.84375 35.82055664 C-5.8492844 36.66715298 -5.85481879 37.51374932 -5.8605209 38.3860001 C-5.87415229 41.22751476 -5.85914487 44.06815485 -5.84425354 46.90965271 C-5.84803578 48.9447619 -5.85353504 50.97986852 -5.86062622 53.01496887 C-5.87460952 58.54585787 -5.86339118 64.07643679 -5.84691501 69.60730863 C-5.83308618 75.38883296 -5.83952204 81.17033889 -5.8430481 86.95187378 C-5.84575171 96.66067007 -5.83226077 106.36934284 -5.80909729 116.07810974 C-5.78247917 127.3128358 -5.78074229 138.54735538 -5.79248565 149.78210217 C-5.80325317 160.57831253 -5.79708491 171.37444799 -5.78293037 182.17065239 C-5.77716241 186.77069297 -5.77725959 191.37067889 -5.78199577 195.97072029 C-5.78675726 201.38388931 -5.77669828 206.79683132 -5.75504112 212.20995712 C-5.74946204 214.20020087 -5.74901817 216.19046639 -5.75399399 218.18071175 C-5.75992032 220.89034165 -5.74749307 223.59927123 -5.73022461 226.30883789 C-5.73623465 227.10279718 -5.7422447 227.89675648 -5.74843687 228.71477515 C-5.71526137 231.56289251 -5.63688413 233.9225722 -4.33117867 236.48941898 C-1.0731775 238.14703989 2.2912944 237.91221247 5.86328125 237.88215637 C6.70972873 237.88683634 7.55617621 237.89151632 8.42827362 237.89633811 C11.27508887 237.90833961 14.12142732 237.89881085 16.96824646 237.88938904 C19.00482973 237.89345242 21.0414108 237.89879298 23.07798767 237.90531921 C28.61707857 237.9190255 34.15600233 237.91368072 39.69509625 237.90418196 C45.48243499 237.89660354 51.26975911 237.9036258 57.05709839 237.90834045 C66.77604247 237.91380288 76.49491822 237.90659316 86.21385193 237.89231873 C97.46390777 237.87598673 108.71380057 237.8812828 119.96385247 237.89779794 C129.60973846 237.91139347 139.25557526 237.91334209 148.90146774 237.90548193 C154.66838406 237.90079536 160.43522364 237.90020762 166.20213509 237.9100914 C171.62184187 237.91873086 177.04133754 237.91279464 182.46102142 237.89540863 C184.4549137 237.89142778 186.44882362 237.89260495 188.44270897 237.89919662 C191.15492036 237.90733922 193.86644613 237.89717952 196.57861328 237.88215637 C197.77494466 237.89219462 197.77494466 237.89219462 198.99544436 237.90243566 C201.40561159 237.91193653 201.40561159 237.91193653 204.65745544 237.50120544 C207.19074642 233.70126898 206.93898706 230.66641013 206.91815186 226.2641449 C206.9219774 225.41431943 206.92580295 224.56449396 206.92974442 223.68891621 C206.9400939 220.83071079 206.93607861 217.97270552 206.93211365 215.11448669 C206.93645901 213.06967482 206.94164156 211.02486457 206.94760132 208.98005676 C206.96102054 203.41820862 206.96156681 197.8564283 206.95903802 192.29456711 C206.95797043 187.65707124 206.96284616 183.01958921 206.96764344 178.38209629 C206.97874844 167.44555189 206.97917025 156.50904183 206.97312927 145.57249451 C206.96708555 134.27588662 206.97940837 122.97940316 207.00069934 111.68281651 C207.0182888 101.99530777 207.02432096 92.30783873 207.0210616 82.6203146 C207.01924458 76.82932593 207.02192666 71.03842605 207.03577614 65.24745178 C207.04830697 59.80395144 207.04645555 54.36064578 207.03336525 48.91714859 C207.03098965 46.91560934 207.03376909 44.91405659 207.04198837 42.91253281 C207.05237453 40.18754793 207.04442116 37.46322626 207.03167725 34.73826599 C207.03905153 33.93973363 207.04642582 33.14120127 207.05402356 32.31847095 C207.02572541 29.4571823 206.95709745 27.08821124 205.64134407 24.51061916 C202.40909059 22.86603037 199.08495956 23.0864332 195.54101562 23.11352539 C194.70414638 23.10813985 193.86727713 23.10275432 193.00504822 23.09720558 C190.19054964 23.08285615 187.37651676 23.09004685 184.56199646 23.09715271 C182.54836141 23.09145279 180.53472959 23.08449 178.52110291 23.07635498 C173.04386759 23.0583666 167.56679197 23.05960263 162.08953595 23.06529737 C157.52171731 23.06838106 152.95392972 23.06230591 148.38611549 23.05625862 C137.61252237 23.04219631 126.8390085 23.04378883 116.06541443 23.05516052 C104.94033131 23.06664353 93.8154892 23.05256679 82.69043785 23.02576405 C73.148126 23.00363282 63.60588994 22.99696385 54.06355423 23.00284046 C48.36025883 23.0062174 42.65711796 23.00374613 36.95384407 22.98658943 C31.59153924 22.97116346 26.2295924 22.97502748 20.86730194 22.99389458 C18.89682269 22.99759254 16.92631717 22.99443705 14.95586205 22.98400879 C12.27045043 22.97087952 9.58623809 22.98227418 6.90087891 23 C5.72495889 22.98559249 5.72495889 22.98559249 4.52528292 22.97089392 C1.23422341 23.01574112 -0.99240775 23.28815852 -3.82643318 25.01257133 Z " fill="#17304C" transform="translate(29.342544555664063,0.4987945556640625)"/>
<path d="M0 0 C0.7156311 -0.0049649 1.43126221 -0.00992981 2.1685791 -0.01504517 C4.54094395 -0.02967509 6.91324194 -0.03647013 9.28564453 -0.04199219 C10.93230186 -0.04774295 12.57895917 -0.0535007 14.22561646 -0.05926514 C17.68068759 -0.06977748 21.13573543 -0.07561862 24.59082031 -0.07910156 C29.01846488 -0.08458685 33.44580201 -0.10861446 37.87335014 -0.13707352 C41.27569478 -0.15569567 44.6779653 -0.16090526 48.0803566 -0.16243744 C49.71264451 -0.16546546 51.34493107 -0.17349904 52.97716904 -0.18662262 C55.26105905 -0.20367474 57.54419719 -0.20180529 59.828125 -0.1953125 C61.77765579 -0.20078094 61.77765579 -0.20078094 63.76657104 -0.20635986 C67.3147994 0.19156302 68.75793547 0.41950442 71.04345703 3.16113281 C71.63887024 6.25479126 71.63887024 6.25479126 71.76733398 10.11669922 C71.79522507 10.82134811 71.82311615 11.52599701 71.85185242 12.2519989 C71.93589313 14.58887955 71.98743321 16.9247387 72.03173828 19.26269531 C72.04928854 20.06616772 72.0668388 20.86964012 72.08492088 21.69746017 C72.17429928 25.96392805 72.2365052 30.22989177 72.27905273 34.49707031 C72.31873626 38.00126272 72.40854029 41.49828758 72.5456543 45 C73.77723018 77.11384151 73.77723018 77.11384151 65.11210632 86.85922241 C56.56821528 94.89946241 56.56821528 94.89946241 51.40840149 95.43423462 C49.04345703 95.16113281 49.04345703 95.16113281 47.04345703 93.16113281 C46.76498413 91.02243042 46.76498413 91.02243042 46.72460938 88.34423828 C46.70473969 87.34335175 46.68487 86.34246521 46.66439819 85.31124878 C46.65284698 84.22788239 46.64129578 83.14451599 46.62939453 82.02832031 C46.61002838 80.92134796 46.59066223 79.81437561 46.57070923 78.67385864 C46.51078949 75.12802913 46.4644783 71.58216736 46.41845703 68.03613281 C46.38028868 65.63637884 46.34123764 63.23663873 46.30126953 60.83691406 C46.20507787 54.9451098 46.12006689 49.05322245 46.04345703 43.16113281 C45.42815628 43.78975723 44.81285553 44.41838165 44.1789093 45.0660553 C38.38261704 50.98248178 32.57205795 56.88443509 26.74494648 62.7705164 C23.74952466 65.79727443 20.75994691 68.82936823 17.78295898 71.87426758 C14.91071161 74.81162364 12.02412628 77.73415234 9.12694359 80.64690971 C8.02325559 81.76169917 6.92486976 82.88176348 5.83190346 84.00706673 C4.30187795 85.58054151 2.75419826 87.13433035 1.20092773 88.68481445 C0.32378616 89.57527969 -0.55335541 90.46574493 -1.45707703 91.38319397 C-3.95654297 93.16113281 -3.95654297 93.16113281 -6.62263489 93.05027771 C-13.47400323 90.44012384 -18.59534018 83.81454383 -22.95654297 78.16113281 C-21.41698163 74.50232105 -19.21565239 72.17821492 -16.41503906 69.39257812 C-15.95632919 68.9335762 -15.49761932 68.47457428 -15.02500916 68.00166321 C-13.51469387 66.49273606 -11.99742909 64.99100827 -10.47998047 63.48925781 C-9.42865127 62.44166057 -8.37776412 61.39361953 -7.32730103 60.34515381 C-4.56653281 57.59200762 -1.79981048 54.84492154 0.96820068 52.09906006 C3.79378631 49.29396366 6.61369148 46.4831696 9.43408203 43.67285156 C14.96500078 38.16335749 20.50222292 32.66025404 26.04345703 27.16113281 C25.42371506 27.15526657 24.80397308 27.14940033 24.16545105 27.14335632 C17.72531282 27.07950931 11.28567835 26.99511249 4.84594727 26.89868164 C2.44139236 26.86539105 0.03675852 26.83737214 -2.36791992 26.81469727 C-5.82098076 26.78122771 -9.27331558 26.72891484 -12.72607422 26.67285156 C-13.80427933 26.66646164 -14.88248444 26.66007172 -15.99336243 26.65348816 C-16.99417343 26.633694 -17.99498444 26.61389984 -19.02612305 26.59350586 C-19.90770584 26.5824028 -20.78928864 26.57129974 -21.69758606 26.55986023 C-24.41312879 26.08054106 -25.34306127 25.36959989 -26.95654297 23.16113281 C-26.81904471 18.90339858 -25.17965898 16.89609935 -22.21044922 13.98925781 C-21.45570312 13.24289063 -20.70095703 12.49652344 -19.92333984 11.72753906 C-19.12992187 10.963125 -18.33650391 10.19871094 -17.51904297 9.41113281 C-16.72949219 8.63125 -15.93994141 7.85136719 -15.12646484 7.04785156 C-9.72030876 1.74769853 -7.74335885 0.04073017 0 0 Z " fill="#162E4B" transform="translate(143.95654296875,43.8388671875)"/>
<path d="M0 0 C2.05560579 1.11363364 3.45883596 2.26763033 5.08789062 3.94555664 C5.66152344 4.52885742 6.23515625 5.1121582 6.82617188 5.71313477 C7.41269531 6.32479492 7.99921875 6.93645508 8.60351562 7.56665039 C9.20550781 8.18217773 9.8075 8.79770508 10.42773438 9.43188477 C11.90985943 10.94929852 13.38261232 12.47585635 14.85351562 14.00415039 C14.19351563 15.65415039 13.53351563 17.30415039 12.85351562 19.00415039 C12.19351563 19.00415039 11.53351563 19.00415039 10.85351562 19.00415039 C10.85351562 19.66415039 10.85351562 20.32415039 10.85351562 21.00415039 C9.4450531 22.3938446 9.4450531 22.3938446 7.46069336 24.03027344 C2.43527343 28.30688187 -2.20278247 32.9165731 -6.86132812 37.58618164 C-7.75767471 38.4815715 -8.6540213 39.37696136 -9.57752991 40.29948425 C-11.4569804 42.17825815 -13.33540625 44.0579903 -15.2121582 45.93945312 C-17.61852714 48.35156812 -20.02942561 50.75909846 -22.44164181 53.16536427 C-24.7506287 55.46988062 -27.05581581 57.77818999 -29.36132812 60.08618164 C-30.66117897 61.38299614 -30.66117897 61.38299614 -31.98728943 62.70600891 C-32.78224319 63.50411484 -33.57719696 64.30222076 -34.39624023 65.12451172 C-35.09825058 65.82731766 -35.80026093 66.5301236 -36.52354431 67.25422668 C-38.22201523 68.92161829 -38.22201523 68.92161829 -39.14648438 71.00415039 C-38.56432663 70.99748856 -37.98216888 70.99082672 -37.38237 70.98396301 C-31.33187372 70.91767349 -25.28148033 70.87237647 -19.23071289 70.83935547 C-16.9715557 70.82425437 -14.71242788 70.80377197 -12.45336914 70.77783203 C-9.20907345 70.74150732 -5.96516482 70.72443731 -2.72070312 70.71118164 C-1.70811935 70.69569778 -0.69553558 70.68021393 0.34773254 70.66426086 C1.75885567 70.66392097 1.75885567 70.66392097 3.19848633 70.66357422 C4.02677444 70.65691238 4.85506256 70.65025055 5.70845032 70.64338684 C8.36125643 71.08954377 9.22451633 71.90443461 10.85351562 74.00415039 C11.74638667 77.13830996 11.6914814 79.86047754 10.85351562 83.00415039 C8.07794965 86.4028026 4.77906272 89.04137684 0.85351562 91.00415039 C-1.34084743 91.11663368 -3.53866644 91.16352497 -5.73583984 91.18115234 C-6.75076508 91.19100914 -6.75076508 91.19100914 -7.78619385 91.20106506 C-10.02868761 91.22080035 -12.27111444 91.23246037 -14.51367188 91.24243164 C-15.6618508 91.24854493 -15.6618508 91.24854493 -16.83322525 91.25478172 C-20.88376852 91.27564232 -24.9342779 91.28994469 -28.98486328 91.29931641 C-33.17047604 91.31038784 -37.35555818 91.3447956 -41.5409832 91.38448811 C-44.75803625 91.41061891 -47.97496212 91.419005 -51.19211197 91.42259789 C-52.73510451 91.42747216 -54.27809105 91.43911015 -55.82098007 91.45763588 C-57.98052941 91.48195642 -60.1386958 91.48107644 -62.29833984 91.47412109 C-63.52696747 91.47998734 -64.75559509 91.48585358 -66.02145386 91.49189758 C-69.73741755 90.91191897 -70.86666713 89.92716818 -73.14648438 87.00415039 C-74.58411017 84.1288988 -74.2896922 81.64398323 -74.30761719 78.43066406 C-74.31258209 77.75565353 -74.317547 77.08064301 -74.32266235 76.38517761 C-74.33729135 74.14748115 -74.34408775 71.90985561 -74.34960938 69.67211914 C-74.35536096 68.11753843 -74.36111869 66.56295774 -74.36688232 65.00837708 C-74.37739491 61.74581573 -74.38323564 58.48327903 -74.38671875 55.22070312 C-74.39219899 51.04425335 -74.4162156 46.86813034 -74.4446907 42.69178295 C-74.46333558 39.47897904 -74.4685237 36.26625348 -74.47005463 33.05340004 C-74.47307836 31.51404347 -74.48109752 29.97468819 -74.49423981 28.43538475 C-74.51133686 26.2786124 -74.50941145 24.12263334 -74.50292969 21.96582031 C-74.50657532 20.7394133 -74.51022095 19.51300629 -74.51397705 18.24943542 C-74.01662903 13.857413 -72.42233124 11.27999726 -69.33398438 8.19165039 C-66.34204405 6.56745421 -64.50873594 6.52382874 -61.14648438 7.00415039 C-57.80887392 9.1550549 -56.41177504 10.20827838 -55.14648438 14.00415039 C-55.06118308 16.8810971 -55.03062792 19.73315221 -55.04882812 22.60961914 C-55.05024307 23.44882401 -55.05165802 24.28802887 -55.05311584 25.15266418 C-55.05871222 27.83236255 -55.07126403 30.51197729 -55.08398438 33.19165039 C-55.08899984 35.00870648 -55.09356267 36.82576387 -55.09765625 38.64282227 C-55.10868046 43.09663052 -55.12594259 47.55037628 -55.14648438 52.00415039 C-53.87016578 50.91245768 -52.59742431 49.81658212 -51.32617188 48.71899414 C-50.61702637 48.10918701 -49.90788086 47.49937988 -49.17724609 46.87109375 C-47.3512162 45.19236682 -45.81174692 43.50418692 -44.27148438 41.56665039 C-43.57023437 40.72102539 -42.86898437 39.87540039 -42.14648438 39.00415039 C-41.48648438 39.00415039 -40.82648438 39.00415039 -40.14648438 39.00415039 C-39.48648438 37.68415039 -38.82648438 36.36415039 -38.14648438 35.00415039 C-37.48648438 35.00415039 -36.82648438 35.00415039 -36.14648438 35.00415039 C-35.81648438 34.01415039 -35.48648438 33.02415039 -35.14648438 32.00415039 C-33.74707031 30.63696289 -33.74707031 30.63696289 -31.88085938 29.12915039 C-28.04676178 25.87991514 -24.53243688 22.41939179 -21.03710938 18.81665039 C-20.49880493 18.26557617 -19.96050049 17.71450195 -19.40588379 17.14672852 C-17.15957117 14.84686516 -14.91558624 12.54523425 -12.68994141 10.2253418 C-11.04608936 8.51522448 -9.38703475 6.82119089 -7.72460938 5.12915039 C-7.22350647 4.599104 -6.72240356 4.06905762 -6.20611572 3.52294922 C-2.71494852 0.00524956 -2.71494852 0.00524956 0 0 Z " fill="#FE5820" transform="translate(118.146484375,126.995849609375)"/>
</svg>
